<?xml version="1.0" encoding="utf-8"?>
<!-- Generator: Adobe Illustrator 23.0.6, SVG Export Plug-In . SVG Version: 6.00 Build 0)  -->
<svg version="1.1" xmlns="http://www.w3.org/2000/svg" xmlns:xlink="http://www.w3.org/1999/xlink" x="0px" y="0px"
	 viewBox="0 0 512 512" style="enable-background:new 0 0 512 512;" xml:space="preserve">
<style type="text/css">
	.st0{fill:none;}
	.st1{fill:url(#path2996_1_);}
	.st2{opacity:0.5336;fill:url(#path3956_1_);enable-background:new    ;}
	.st3{fill:url(#path3985_1_);}
	.st4{opacity:0.15;fill:url(#path4442_1_);enable-background:new    ;}
	.st5{fill:url(#path3901_1_);}
	.st6{fill:url(#path3909_1_);}
	.st7{fill:#DCAA0D;}
	.st8{fill:url(#path4484_1_);}
	.st9{opacity:0.3;fill:url(#path4393_1_);enable-background:new    ;}
	.st10{opacity:0.35;fill:url(#path26285_1_);enable-background:new    ;}
	.st11{fill:#805A0F;}
	.st12{fill:url(#path3856_1_);}
	.st13{fill:url(#path3810_1_);}
	.st14{opacity:0.5536;fill:#D6A302;enable-background:new    ;}
	.st15{opacity:0.1422;fill:#E3B00F;enable-background:new    ;}
	.st16{fill:#FFFFFF;stroke:#000000;stroke-width:10;stroke-miterlimit:10;}
	.st17{fill:none;stroke:#000000;stroke-width:10;stroke-miterlimit:10;}
	.st18{fill:none;stroke:#000000;stroke-width:10;stroke-miterlimit:10;stroke-dasharray:37.9489,37.9489;}
	.st19{fill:#231F20;}
</style>
<g id="svg2" xmlns:cc="http://creativecommons.org/ns#" xmlns:dc="http://purl.org/dc/elements/1.1/" xmlns:inkscape="http://www.inkscape.org/namespaces/inkscape" xmlns:ns1="http://sozi.baierouge.fr" xmlns:rdf="http://www.w3.org/1999/02/22-rdf-syntax-ns#" xmlns:sodipodi="http://sodipodi.sourceforge.net/DTD/sodipodi-0.dtd">
	
		<sodipodi:namedview  bordercolor="#666666" borderopacity="1.0" fit-margin-bottom="0" fit-margin-left="0" fit-margin-right="0" fit-margin-top="0" id="base" inkscape:current-layer="g3922" inkscape:cx="411.21174" inkscape:cy="-16.047634" inkscape:document-units="px" inkscape:pageopacity="0.0" inkscape:pageshadow="2" inkscape:window-height="845" inkscape:window-maximized="1" inkscape:window-width="1440" inkscape:window-x="-3" inkscape:window-y="-3" inkscape:zoom="0.2206256" pagecolor="#ffffff" showgrid="false">
		</sodipodi:namedview>
	<g id="layer1" transform="translate(485.1 -30.251)" inkscape:groupmode="layer" inkscape:label="Layer 1">
		<g id="g3922" transform="translate(-.000010930 -43.974)">
			<path id="path4693" class="st0" d="M-179.2,387.3c-62.2,0-125.1,8.4-183.3,31.2c-36.7-5.5-68.7,38-61.5,71.6
				c23.2,36.4,74.1,35.5,112.1,45.1c94.5,13.7,192.8,8.6,283.1-24c40-0.3,73.1-51.3,45.7-84.4C-40.8,391-113.4,389.7-179.2,387.3
				L-179.2,387.3z"/>
			<path id="path4707" inkscape:connector-curvature="0" class="st0" d="M-190.5,464.2c-41.3,0.1-83,3.5-123,15
				c-18.5-3.2-44.8,11.5-41.1,33.5c11.1,17.1,34.2,13.6,51.2,18.7c61.1,9.4,123.9,9.2,184.8-1.8c20.1-7.7,46.8-2.7,61.7-20.8
				c14.8-20.8-11.9-34.6-28.9-34.8C-120.3,466.3-155.5,464.4-190.5,464.2L-190.5,464.2z"/>
			
				<radialGradient id="path2996_1_" cx="-771.8164" cy="298.1476" r="210.16" gradientTransform="matrix(1.108 0 0 -0.9402 594.3088 539.3481)" gradientUnits="userSpaceOnUse">
				<stop  offset="0" style="stop-color:#F4CA43"/>
				<stop  offset="0.5" style="stop-color:#FFCA2B"/>
				<stop  offset="1" style="stop-color:#D4A100"/>
			</radialGradient>
			<path id="path2996" inkscape:connector-curvature="0" sodipodi:nodetypes="scccscscs" class="st1" d="M-285.1,118.2
				c-63.4,0.2-123.6,23.2-159,78.4c-35.1,9.3-52.9,33.5-29.5,67.3c5,15.9-34.3,137.4,105.6,209.3c77.8,50.3,250,64.8,300.1-24.3
				c15.5-27.5,34.9-5.9,49.3-63.7c-4.6-49.4-3.6-50.9-6.8-60.6c-2.3-7.2-8.6-24.9-9.7-45.2C-48.3,189.6-172,117.8-285.1,118.2
				L-285.1,118.2z"/>
			
				<linearGradient id="path3956_1_" gradientUnits="userSpaceOnUse" x1="-162.1449" y1="123.4517" x2="-14.2139" y2="339.2917" gradientTransform="matrix(-0.7532 0.1813 -0.9969 -0.5761 96.5978 535.9982)">
				<stop  offset="0" style="stop-color:#FFFFFF"/>
				<stop  offset="0.4" style="stop-color:#FFFFFF"/>
				<stop  offset="1" style="stop-color:#FFFFFF;stop-opacity:0"/>
			</linearGradient>
			<path id="path3956" class="st2" d="M-143.7,300.2c-4.2,0-8.2,0.2-12,0.6c-40.9,4-66.2,18.4-79.1,33.2
				c-18.2,18.9-31.6,40.5-12.1,61.3c7.6,7.4,21.3,16.6,43.4,17.6c11-7.3,11.6-18,33.6-21.9c32.8-7.3,39.6-23.1,49.1-36.4
				c10.3-14,19.9-28.4,20.2-43.4C-105.4,303.8-125.6,300.1-143.7,300.2z"/>
			
				<radialGradient id="path3985_1_" cx="-773.0538" cy="338.7531" r="57.599" gradientTransform="matrix(1.6637 4.5233 4.4452 -1.1911 -527.3827 3431.5159)" gradientUnits="userSpaceOnUse">
				<stop  offset="0" style="stop-color:#FFFFFF"/>
				<stop  offset="0.4" style="stop-color:#FFFFFF"/>
				<stop  offset="1" style="stop-color:#FFFFFF;stop-opacity:0"/>
			</radialGradient>
			<path id="path3985" inkscape:connector-curvature="0" sodipodi:nodetypes="ccccsccc" class="st3" d="M-281.5,221.6
				c-0.8,0-1.6,0-2.4,0c-13.4,0.2-26.9,2.8-40.5,8.6c-68.2,45.5,88.4,88.9,144.1,100.5c34.3,12.5,2.5,53.4,42.4,53.7
				c24,0.2,46.1-7,63.3-27.8c8.1-35.5-36.5-49.1-65.8-64.6C-185.5,270.9-229.7,221.9-281.5,221.6L-281.5,221.6z"/>
			
				<radialGradient id="path4442_1_" cx="-761.336" cy="291.6142" r="210.16" gradientTransform="matrix(0.7129 0 0 -0.822 328.0854 507.7668)" gradientUnits="userSpaceOnUse">
				<stop  offset="0" style="stop-color:#FFFFFF"/>
				<stop  offset="0.4" style="stop-color:#FFFFFF"/>
				<stop  offset="1" style="stop-color:#FFFFFF;stop-opacity:0"/>
			</radialGradient>
			<path id="path4442" inkscape:connector-curvature="0" class="st4" d="M-70.9,407.5c-15.6,11.2-30.4,26.5-38.3,48.3
				c-6.2,11.7-15,21.5-18,35.9c6.6,2.8,12.8-7.9,18.6-12c8.8-8.7,15-21.1,22.9-31c7.1-8.6,24.9-17,18.7-33.2
				C-68.3,412.8-69.8,410.3-70.9,407.5L-70.9,407.5z"/>
			
				<linearGradient id="path3901_1_" gradientUnits="userSpaceOnUse" x1="-943.7507" y1="367" x2="-960.1407" y2="334.4" gradientTransform="matrix(1.108 0 0 -1.108 594.3088 608.6802)">
				<stop  offset="0" style="stop-color:#F4CA43"/>
				<stop  offset="0.5" style="stop-color:#FFCA2B"/>
				<stop  offset="1" style="stop-color:#D4A100"/>
			</linearGradient>
			<path id="path3901" class="st5" d="M-442.1,193.5c-0.7,1-1.3,2-2,3.1c-35.1,9.3-52.9,33.5-29.5,67.4c1.1,3.4,0.1,11.8-0.7,23.4
				c2.7-35.5,14.2-58.2,23.6-76.3c2.3-5.1,4.8-10.1,7.5-14.9C-442.9,195.3-442.5,194.4-442.1,193.5z"/>
			
				<radialGradient id="path3909_1_" cx="-816.7618" cy="385.6396" r="73.611" gradientTransform="matrix(1.6342 0.5154 0.938 -2.8726 661.7769 1857.594)" gradientUnits="userSpaceOnUse">
				<stop  offset="0" style="stop-color:#FFFFFF"/>
				<stop  offset="0.4" style="stop-color:#FFFFFF"/>
				<stop  offset="1" style="stop-color:#FFFFFF;stop-opacity:0"/>
			</radialGradient>
			<path id="path3909" class="st6" d="M-309,119.6c-52.7,5.4-101,27.5-132.4,71.6c-8.9,15.3-16.5,31.9-22.2,49.8
				c-12.2,38.1-14.5,76.2-8.5,110.4c0,0.1,0,0.1,0,0.2c3.4,14.7,9,30.1,18.1,45.5c3.3-63.6,29.9-138.1,77.3-204.1
				C-355.8,164-332.8,139.3-309,119.6z"/>
			<path id="path4193" class="st7" d="M-107.4,298.2c2.2,2.1,4.5,4.3,6.9,6.5C-102.3,302.4-104.6,300.2-107.4,298.2z M-100.5,304.7
				c15.8,19.9-5,47.5,13.4,59.5c6.1,5.1,14.3,9.6,18.4,15.1c7.9,0,11.5-7.6,20-3.6c5.8-0.8,1.2-6.1,2-8.5
				c-2.2-7.5-12.1-13.8-19.3-20.4C-70.9,330.8-86.7,317.4-100.5,304.7z"/>
			
				<radialGradient id="path4484_1_" cx="-766.5668" cy="277.796" r="210.16" gradientTransform="matrix(0.7842 0 0 -0.769 267.4124 453.4843)" gradientUnits="userSpaceOnUse">
				<stop  offset="0" style="stop-color:#F2C26D"/>
				<stop  offset="1" style="stop-color:#7F6C43"/>
			</radialGradient>
			<path id="path4484" class="st8" d="M-478.4,218.2c-0.7,4.7-1.7,8-2.7,7.8c-0.4-0.1-0.7-0.6-0.9-1.5c-0.8,2.2-1.4,4.4-1.7,6.9
				c3.2-0.5,5.7-4.8,5.7-10C-478,220.3-478.2,219.2-478.4,218.2z"/>
			
				<radialGradient id="path4393_1_" cx="-866.85" cy="95.2922" r="224.02" gradientTransform="matrix(1 0 0 -0.8518 485.1 518.0147)" gradientUnits="userSpaceOnUse">
				<stop  offset="0" style="stop-color:#F4CA43"/>
				<stop  offset="0.5" style="stop-color:#FFCA2B"/>
				<stop  offset="1" style="stop-color:#D4A100"/>
			</radialGradient>
			<path id="path4393" inkscape:connector-curvature="0" class="st9" d="M-284.5,121.2C-301.1,134.6-269.4,127.3-284.5,121.2z
				 M-279.3,121.2C-278.9,136.8-258.1,116.3-279.3,121.2z M-303.4,121.9C-319.3,117.3-309.8,133.4-303.4,121.9z M-263,121.9
				C-257.2,139.2-243,117.9-263,121.9z M-322.2,124.2C-342.9,122.5-318.2,139.4-322.2,124.2z M-238.2,124.9
				C-239.8,140-220.4,121.4-238.2,124.9z M-334,126.4c-14.6-2.9-2,11.4,0.1,0.3L-334,126.4z M-249.7,126.5
				C-263.9,135.1-233.2,138.5-249.7,126.5z M-267.4,126.6C-281.1,136.7-251.5,137.4-267.4,126.6z M-347,129.6
				c-12.1,2.3-21.8,25.3-2.6,13.9c15.6,5.8-6.5-11.8,9-7.1C-335.6,132.6-343.3,128.5-347,129.6L-347,129.6z M-213.5,129.8
				C-222.8,148.3-194.2,129.6-213.5,129.8z M-304.9,131.6c-1.5,7.1-22.8,22.2-4.5,18.6C-306.1,146-294.9,135-304.9,131.6z
				 M-227,132.7C-245.1,143.3-210.3,142.4-227,132.7z M-318.4,132.8C-334.7,142.1-302.8,145.2-318.4,132.8z M-333.8,133.7
				C-347,145-319.6,139.1-333.8,133.7z M-288,133.9C-303.5,145.7-270.8,143.3-288,133.9z M-273.2,136
				C-293.6,143.7-259.7,145.5-273.2,136z M-249.6,136.1C-261,150.3-230,146.2-249.6,136.1z M-189.9,137.8
				C-207.9,147.3-175.5,152.4-189.9,137.8z M-215.4,138.1C-232,150.7-198.8,146.6-215.4,138.1z M-201.5,141.7
				C-217.2,153.7-184.6,150.3-201.5,141.7z M-380.1,143C-402.3,151.2-372.6,155.9-380.1,143z M-263.1,144.9
				C-275.9,154.1-248.1,157.5-263.1,144.9z M-302.5,146.4C-324.2,156.7-286.8,156.7-302.5,146.4z M-228.9,146.7
				C-240,159.9-208.4,156-228.9,146.7z M-235.7,147.5C-249.5,156.1-222.3,155.9-235.7,147.5z M-248.2,148.3
				C-264.3,160-231.5,156.4-248.2,148.3z M-365.9,148.9C-379.2,157.6-350.1,160.7-365.9,148.9z M-270.7,150.4
				C-288.3,164.2-251.4,156.5-270.7,150.4z M-348.3,151.1C-366.9,163.4-329.7,158.4-348.3,151.1z M-336.4,151.1
				C-350.7,160.3-321.8,161.3-336.4,151.1z M-324.8,152.9C-341,161.9-311.2,165.8-324.8,152.9z M-288.9,154.6
				C-312.5,165.5-273.3,165.3-288.9,154.6z M-391.5,154.7C-405.1,164.3-376,164.4-391.5,154.7z M-158.1,155.7
				C-170.8,164.6-144.3,168.4-158.1,155.7z M-198,157.8C-211.8,167.9-183.2,172.7-198,157.8z M-258.2,158.8
				C-283,169.7-237.9,167.3-258.2,158.8z M-278.6,158.8C-293.2,168.4-263.8,170.8-278.6,158.8z M-214.2,159
				c-9.1,0.6-20.8,12.9-5.4,11.3C-219.9,165.4-198.3,165.9-214.2,159z M-174.7,159.5C-187.9,174.1-154.9,164.9-174.7,159.5z
				 M-310.4,160.2C-323.9,168.3-296.7,169.4-310.4,160.2z M-146.4,160.5C-160.9,169.1-132.3,171.7-146.4,160.5z M-239.8,162.5
				C-251.1,173.7-223.4,169.2-239.8,162.5z M-129.5,163.4C-141.9,175.2-112.8,171-129.5,163.4z M-387.8,164.2
				C-399.5,177.3-369.5,173-387.8,164.2z M-270.8,164.5C-286.1,173.1-254.3,172.8-270.8,164.5z M-404,165.2
				c-11.7,5.1-15,22.4,0.1,9.3C-397.7,172.5-395.9,166.8-404,165.2z M-160,165.2C-177.8,176.3-142.4,174.3-160,165.2z M-346.9,165.5
				C-359.6,179-328.1,175.5-346.9,165.5z M-205.3,166.5c-15-0.2-11.3,28.4-4.1,16.6c1.5-7.8,27.3,13.8,20-3.5
				c-10.6,0.5-13.5-7.4-13.5-12.9l-1.2-0.2L-205.3,166.5L-205.3,166.5L-205.3,166.5z M-247.4,167.4
				C-262.8,176.8-232.1,178.9-247.4,167.4z M-286.9,167.8C-299.4,176.8-271.5,176.4-286.9,167.8z M-193.9,168.8
				C-211.7,179.8-176.6,176.9-193.9,168.8z M-176.9,169.2c-23.9,4.4,1.3,18.4,9.4,4.5C-168.3,169.6-173.8,170.4-176.9,169.2z
				 M-370.1,170.8c-12.5,5.4,10.4,24.7,3.3,6.1C-364.5,174-365.9,170.3-370.1,170.8z M-117.3,171c-6,3.4-14.8,14.7-1.2,9.8
				C-111.4,179.4-108.3,173.9-117.3,171z M-358.1,172.4C-374.6,184.9-339.2,178.6-358.1,172.4z M-233.3,172.8
				C-245.5,183.9-216.9,183-233.3,172.8z M-294.8,174.2C-311.1,185.6-280.6,182.6-294.8,174.2z M-139.1,174.2
				C-154.8,183.1-124.2,184.1-139.1,174.2z M-285.8,177.2C-302.2,190.1-268.3,185-285.8,177.2z M-322,177.6
				C-340,193-304.8,184.9-322,177.6z M-274.7,178.1C-294,190.5-259.7,188-274.7,178.1z M-150.3,178.5
				C-169.5,189.2-133.9,187.7-150.3,178.5z M-407.1,178.9C-419.8,189.1-392.8,191-407.1,178.9z M-262.9,180.2
				C-280.9,191.7-249.5,190.1-262.9,180.2z M-177.4,180.3C-193.9,192-160.2,189.1-177.4,180.3z M-251.3,180.6
				C-265.7,193-234.8,187.4-251.3,180.6z M-128.2,181.4c-15.8,3.4,6.3,26,1.5,8.4C-124.1,186.8-122.1,182.2-128.2,181.4z
				 M-341.1,182.4C-359.2,193.5-324.7,193.1-341.1,182.4z M-139.1,183.1C-155.6,192.1-126.3,198.2-139.1,183.1z M-361.5,183.9
				c-11.9,11.7,22.1,6,1.7,0.3l-1.2-0.2L-361.5,183.9z M-295.9,184.4C-310.8,198-281.1,194.1-295.9,184.4z M-111.3,186.3
				C-127.9,196.2-95.5,196-111.3,186.3z M-393.7,186.9C-410.5,196-378,197.5-393.7,186.9z M-166.9,187.1
				C-178.5,197.9-147.2,191.4-166.9,187.1L-166.9,187.1z M-224.6,187.2c-13.9,10.6,19.7,7.1,0.3,0L-224.6,187.2L-224.6,187.2
				L-224.6,187.2z M-312,187.7C-323.3,199.4-293.1,193-312,187.7z M-206,187.8C-219.9,197.4-191,198.9-206,187.8z M-273.2,188.3
				C-288.3,200.2-258.2,196.9-273.2,188.3z M-424.9,188.5C-440.6,199.6-410.4,198.9-424.9,188.5z M-182.9,188.9
				C-196.9,194.7-170,199.1-182.9,188.9z M-416.9,189C-430.8,198.1-400.2,201.6-416.9,189z M-151.5,189.3
				C-164,198.3-138.6,196.4-151.5,189.3z M-234.9,189.4C-253.7,201.4-219.5,198.7-234.9,189.4z M-321.3,191.5
				C-337.2,201.2-305.6,202.3-321.3,191.5z M-192.9,192.5C-209.2,202.3-179.1,206.4-192.9,192.5z M-380.3,193.5
				C-393.9,208.1-360.1,198.3-380.3,193.5z M-95.6,193.8C-108.3,207.7-76.1,199.4-95.6,193.8z M-243.3,194.5
				C-257.9,207-228.7,204.3-243.3,194.5z M-214.2,196.1C-228.9,205.3-199.6,210.6-214.2,196.1z M-254.9,197.4
				C-271,206.9-239.5,207.6-254.9,197.4z M-128.4,198.3c-30.3,7.6,21,24.1,14.8,3.4C-121.9,200.4-124.8,210.1-128.4,198.3z
				 M-207.2,199.4c-9,13.1,21.7,5.2,1.2,0.1L-207.2,199.4z M-306.5,199.8C-320.7,212.3-292.1,210.1-306.5,199.8z M-352.2,199.9
				C-366.8,214-337.7,209.1-352.2,199.9z M-155.4,200.5C-170.5,210-139.1,211.5-155.4,200.5z M-84,200.6
				C-104.1,219.9-67,213.5-84,200.6z M-412.8,200.9C-424.1,214.9-397.9,210.6-412.8,200.9z M-329,200.9
				c-10.8,12.1,21.3,3.2,13.8,17.3C-296.5,223.7-319.1,194-329,200.9L-329,200.9z M-170.1,201C-190.3,214-150.3,208.5-170.1,201z
				 M-276.6,201C-294.1,210.7-260.1,211.6-276.6,201z M-221.4,202.8C-241.4,213.2-203.1,209.8-221.4,202.8z M-393,203.5
				C-407.2,216.6-377.8,212.5-393,203.5z M-246,206.1C-259.4,212.7-233.2,215.3-246,206.1z M-99.7,206.3c-10.7,11,20.2,8.9,2,0.2
				l-1.2-0.1L-99.7,206.3L-99.7,206.3L-99.7,206.3z M-366.3,206.9C-379.9,215.9-351,216.5-366.3,206.9z M-259.3,207.2
				C-271.3,220.3-243.3,218.1-259.3,207.2z M-127.7,207.3C-126.4,207.2-129,208.9-127.7,207.3z M-235.4,207.7
				C-249.1,219.2-221.2,213.4-235.4,207.7z M-109.7,208.4C-124.4,219-96.8,215.3-109.7,208.4z M-183.3,209
				C-204.9,220.7-164.4,217.5-183.3,209z M-293,209.1C-308.9,216.8-278.1,221.4-293,209.1z M-210.6,210.3
				C-227.8,220.5-193.6,218.3-210.6,210.3z M-331.1,210.6C-344,219.6-317.1,219.5-331.1,210.6z M-78.2,210.7
				C-90.9,223.1-62.9,219.2-78.2,210.7z M-440.6,211.4C-454.6,228-421.6,215-440.6,211.4z M-117.7,212.9
				C-141.5,223.5-102.3,223.4-117.7,212.9z M-429.1,212.9C-446,225.8-414,222.9-429.1,212.9z M-68.7,213.6
				C-79.5,222.1-53.2,224-68.7,213.6L-68.7,213.6z M-196.3,213.6C-212.7,221.4-181.9,224.5-196.3,213.6z M-410.7,214.6
				C-426.7,226.7-393,222.2-410.7,214.6z M-134.8,214.8C-149.7,226.7-117.5,224.4-134.8,214.8z M-276.2,215.7
				C-293.9,226.9-258.1,222.7-276.2,215.7z M-382.3,215.7C-405.4,225.5-363.2,223.9-382.3,215.7z M-156.9,216
				C-179.4,226.3-136.5,223.7-156.9,216z M-88.7,216.4C-111.7,226.1-69.3,224.8-88.7,216.4z M-105.2,216.4
				C-118,229-91,225.9-105.2,216.4z M-350.5,217.1C-376.3,229.1-330.9,224.3-350.5,217.1z M-246.4,217.4c-16.8,4-6.4,20.6,3.3,6.3
				C-240.8,221.1-242.8,217.2-246.4,217.4z M-369.5,217.7C-388.2,229.6-352.4,224.9-369.5,217.7z M-266.4,218.7
				C-278.9,228.4-252.5,232-266.4,218.7z M-286,219.9C-299.3,226.2-273.7,229.2-286,219.9z M-400.4,220.7
				C-410.8,234.2-381.3,228.4-400.4,220.7z M-71.2,221c-22.5,1.7,5,18.8,2.6,0.9L-71.2,221z M-233.3,221
				c-8.8,1.4-17.2,15.5-2.4,10.7C-232.4,229.9-226.4,222.7-233.3,221z M-182.1,221.3C-195.1,234.2-163.7,232-182.1,221.3z
				 M-316,223.2C-328.9,234.8-296.2,229.4-316,223.2L-316,223.2z M-363,224C-376.5,231-350.1,233.9-363,224z M-60.4,224.4
				C-62.9,234.2-50.5,232-60.4,224.4z M-109.5,225.6C-125.8,235.6-94.3,235.6-109.5,225.6z M-211.6,225.8
				C-229.7,234.1-196.9,234.8-211.6,225.8z M-275.3,227c-15.2,2.4-5.3,23,1.5,8.5C-267.9,232.7-268.6,227.5-275.3,227z M-259.9,227
				C-274.7,239.4-244.1,234.5-259.9,227z M-434.8,227.2C-453.1,237.3-418.4,237.3-434.8,227.2z M-383.6,230.5
				C-395.7,242.9-368.4,235.2-383.6,230.5z M-228.2,230.5C-242.2,243.4-208.1,237-228.2,230.5z M-350.1,230.5
				C-368.2,243.1-335.5,239.8-350.1,230.5z M-294.9,230.8C-309.4,241.5-274.4,239.9-294.9,230.8z M-64.3,231.1
				C-80.1,240.9-49.4,241.6-64.3,231.1z M-144.3,231.4c-12.2,9.8-0.9,35.6,6.3,15c7.2-8.5-14.7,0.7-3.2-9.7
				C-139.6,234.7-141.1,230.8-144.3,231.4L-144.3,231.4z M-196.3,231.5C-209,241.9-179.8,243.4-196.3,231.5z M-371.9,231.7
				C-388.4,241.5-356,242.3-371.9,231.7z M-410.8,232.7C-424.7,245.2-392.1,234.9-410.8,232.7z M-452.8,232.9
				c-7.8,9.6-5.8,25.7,1.3,6.9C-450.2,237.5-450.9,234.6-452.8,232.9z M-77.6,232.9C-97.8,244-61.3,246-77.6,232.9z M-334,233.2
				C-348,242.3-318.1,238.9-334,233.2z M-251.3,234C-270.8,244.8-234,245.3-251.3,234z M-168.6,234.2
				C-185.6,246.5-150,242.7-168.6,234.2z M-424.9,234.6C-440.5,247.6-407.2,241.4-424.9,234.6z M-262.2,235.8
				C-277,242.4-248,247.2-262.2,235.8z M-444.5,236.1c-15.9,10.7,23.9,8.5,4.5,1.9l-1.4-0.5L-444.5,236.1L-444.5,236.1z
				 M-391.5,236.3c-5.4,2.9-23.1,8.5-6.9,9.4C-393.2,245.5-381.2,241.6-391.5,236.3z M-92.4,237.2C-106.8,246-76.6,243-92.4,237.2z
				 M-312.5,237.5C-325.6,246.5-299.4,250.4-312.5,237.5z M-217.9,237.5C-232.7,250.4-200.5,245.5-217.9,237.5z M-116.5,238.1
				C-128.7,246.3-102.8,246.2-116.5,238.1z M-186.9,238.5C-200.9,247.4-172.2,250.6-186.9,238.5z M-51.5,238.9
				C-61.6,247.6-38.6,251.1-51.5,238.9z M-65.6,240.1C-85.1,256-45.2,244.9-65.6,240.1z M-200.6,240.9
				C-214.9,253.3-185.7,250.6-200.6,240.9z M-103.3,241C-121.8,253.6-85,249-103.3,241z M-232.6,241.9
				C-249.3,250.6-215.9,248.2-232.6,241.9z M-158.4,242.1C-170.3,254.7-142.6,251.2-158.4,242.1z M-378.4,242.9
				C-397.1,252.8-363.6,251.7-378.4,242.9z M-416.2,243.4c-13.3,4.9,7.5,23.6,4.7,5.3C-410.9,246-413.4,243.1-416.2,243.4z
				 M-432,243.7c-14.6,11.1,26,11.8,5,3.1l-2.1-2.2L-432,243.7L-432,243.7z M-127.7,243.8C-139.7,256.2-112.1,253-127.7,243.8z
				 M-223,244.1C-238.3,257-207.9,253.6-223,244.1z M-244.4,244.8c-12.3,2-14.2,13.9-0.4,7C-237.9,251.5-237.4,246.8-244.4,244.8z
				 M-271.7,245.2C-286.2,257.3-256.8,255.7-271.7,245.2z M-292.6,245.5C-314.2,257.9-272.5,255.1-292.6,245.5z M-90.7,246.1
				C-105.5,259.3-72.8,253.2-90.7,246.1z M-213.7,246.5C-232.3,258.2-200.1,257.5-213.7,246.5z M-332.2,246.7
				C-355.3,256.1-315.8,257-332.2,246.7z M-165.7,246.9C-187.2,258-146.3,253.7-165.7,246.9z M-352.8,248.4
				C-369.4,256.2-332.8,257.2-352.8,248.4z M-56.5,248.4C-70.3,257.6-43.6,257.7-56.5,248.4z M-73.8,249.5
				C-84.3,264.2-50.7,255.7-73.8,249.5z M-367.1,250.2C-382,261.7-350.9,258.6-367.1,250.2z M-396.2,251.1
				C-408.8,262.6-380.1,261.3-396.2,251.1z M-313.3,251.7C-326.8,258.6-301.5,265.7-313.3,251.7z M-120.7,252.3
				C-133.2,261.3-105,257.2-120.7,252.3L-120.7,252.3z M-444.2,252.8C-462.5,263.7-427.5,261.3-444.2,252.8z M-237,253.4
				c-15.9,0.3-9.4,14.9,3,6.3C-228,257.1-232.3,253.3-237,253.4L-237,253.4z M-111.2,254C-123.9,263.2-95.7,265.6-111.2,254z
				 M-281.6,254.4c-11.5,10.4,18.6,10.8,2,0.4l-1.2-0.2L-281.6,254.4L-281.6,254.4L-281.6,254.4z M-195.8,254.5
				C-208.5,266.4-180.8,259.8-195.8,254.5z M-183,254.9C-196.6,266.7-163.1,260.6-183,254.9z M-436.1,255
				c-11.1,15.1,32.1,2.4,8.9,1.5C-430,258.6-433.6,256.2-436.1,255z M-227.1,256C-241.4,270.2-207.4,260.1-227.1,256z M-99.5,256.1
				C-118.6,265.2-84.8,266.7-99.5,256.1z M-132.1,258.1C-144.7,267-119.1,265.1-132.1,258.1z M-408.5,258.5
				C-424.2,270.6-390.9,266.1-408.5,258.5z M-267.6,258.8C-287.1,270.7-248.8,269.2-267.6,258.8z M-85.2,259.8
				C-106,271.6-66.1,270-85.2,259.8z M-308.4,260C-320.4,273.5-292.8,270-308.4,260z M-461.8,260.3c-12.1,11.5,19,8.6,0.6,0.2
				L-461.8,260.3L-461.8,260.3z M-212.5,260.6C-226.3,273.2-194.1,269.2-212.5,260.6z M-67.9,261.1c-6.4,5.7-6.2,24.5,2.1,10.7
				C-65,268.7-63.2,262.3-67.9,261.1z M-163,262.1C-183.2,270.4-152.1,274.5-163,262.1z M-330.6,262.4
				C-347.9,275.8-314.7,270.8-330.6,262.4z M-48,262.9c-9.6,12.6,19.9,6.6,0.9,0.1L-48,262.9z M-292.5,263.1
				C-304.7,276.6-277.4,272.5-292.5,263.1z M-117.8,263.5c-13.2,1.5-3.7,24.7,0.3,8.5C-113.1,270.8-112.2,263.3-117.8,263.5z
				 M-238.7,263.9C-251.7,273.7-222.2,273.4-238.7,263.9z M-353.6,264.8C-367.6,275.3-340.7,271.1-353.6,264.8z M-194.3,265.5
				c-2.8,11-35.2,20.9-10.2,21.7c2.2,3.7-4.4,23.2,10.2,18.9c-5.8-6.7-3.7-17.1,5.5-18.9c-16.5,6.3,8.1,24.3,2.1,6.4
				c14.1,0.4,17.6-32.5,5.9-20.9C-180.4,280.9-187.5,261.6-194.3,265.5L-194.3,265.5z M-393.5,266.9
				C-409.5,280.2-374.8,273.9-393.5,266.9z M-153.7,267C-169.1,281.3-135.1,272.6-153.7,267z M-364.7,267.8
				C-384.7,278.3-348.5,276.4-364.7,267.8z M-281.7,267.8C-295.6,280.6-262,275.1-281.7,267.8z M-424,268.6
				C-435.8,279.3-407.4,276.9-424,268.6L-424,268.6z M-56.7,269c-12.8,10.3,18.5,7.8,0.1,0L-56.7,269L-56.7,269L-56.7,269z
				 M-375.2,269.1C-397.5,282.8-356.9,277.2-375.2,269.1z M-446.7,269.4C-459.7,279.4-427.5,277.5-446.7,269.4L-446.7,269.4z
				 M-105.2,269.6C-122.9,275.7-92.2,282.2-105.2,269.6z M-208.7,270C-226.4,278.6-193.2,281.2-208.7,270z M-257.8,270.5
				C-276.8,283.1-242.9,279.4-257.8,270.5z M-221,270.6C-236.9,279.3-206,278.4-221,270.6z M-436.3,270.8
				c-15.6,9.9,9.3,18.3,3.6,1.9l-1.6-1.4L-436.3,270.8L-436.3,270.8z M-87.7,271C-104.3,280.4-73.2,285.4-87.7,271z M-322.9,271.1
				C-338.4,283.1-307,279.5-322.9,271.1z M-307.2,273.6C-324.5,283.3-289.5,283.8-307.2,273.6z M-195.7,273.7
				c19.8,0.5-14,19.2,0.6,1.6L-195.7,273.7z M-269.8,273.8C-284,287.1-255.4,286.5-269.8,273.8z M-155.9,275.1
				C-167.2,285.6-138.9,282.7-155.9,275.1L-155.9,275.1z M-135.5,275.7C-160.3,286.4-116.5,284.3-135.5,275.7z M-165.1,278.2
				C-183.6,286.2-147.3,287.6-165.1,278.2z M-357.7,278.7C-370.4,285.7-345.4,287.8-357.7,278.7z M-406.8,279.3
				C-429,288.6-391.3,288.4-406.8,279.3z M-292.2,279.9C-305.4,287.9-278.9,289.1-292.2,279.9z M-340,280.3
				C-357.2,288.5-325.3,290.9-340,280.3z M-392.7,280.6C-403.6,293.2-376,288.6-392.7,280.6z M-80.2,280.7
				C-93.9,289.3-64.4,293.4-80.2,280.7z M-46.1,280.7C-69.2,288.9-27.9,289.2-46.1,280.7z M-121.5,281.3
				C-142.3,290.2-108,296.4-121.5,281.3z M-104.2,282.1C-122.8,296.8-85.3,287.8-104.2,282.1z M-366.9,282.2
				C-383.1,291.6-351.3,295-366.9,282.2z M-67.9,283.3c-19.9,2.4,5.6,30.1,1.1,10.5C-52.4,290.9-54.6,288.3-67.9,283.3z
				 M-246.1,283.7C-265.6,295.2-228.7,293.3-246.1,283.7z M-463.4,284.5C-490.4,303.1-446.9,293.6-463.4,284.5z M-146.7,285.4
				C-161.2,295.3-126.7,292.7-146.7,285.4z M-320.5,286.8C-332,296.5-304.9,294.5-320.5,286.8z M-373.8,287.8
				C-390.7,296.4-358.5,298.7-373.8,287.8z M-442.8,287.9C-455.8,294.7-430.3,297-442.8,287.9z M-428.9,287.9
				C-450,299.3-410.5,296.6-428.9,287.9z M-415.4,288.1C-432,301.1-400.6,299.6-415.4,288.1z M-353.1,288.2
				C-372.7,299.4-337.1,297.6-353.1,288.2z M-171.7,288.6C-186,296.2-157.8,298.8-171.7,288.6z M-230,289.1
				C-248.5,303.4-213.3,298-230,289.1z M-156.6,290.4C-173.7,300.2-140.5,300.8-156.6,290.4z M-261.8,290.8
				C-277.6,303.3-245.7,299.4-261.8,290.8z M-457.8,291.5C-470.6,300-445.3,298.7-457.8,291.5z M-86.7,291.6
				c-11.4,10.8,24.2,17.7,5.2,5.1C-83.5,295.5-86.2,294.2-86.7,291.6z M-134.8,291.6C-151,303.5-118.9,300.6-134.8,291.6z
				 M-38.4,292.6C-53.9,303.5-26,304.5-38.4,292.6z M-102.2,292.8C-115.1,304.2-85.9,302.9-102.2,292.8z M-216.6,294.5
				C-229.4,304-202.3,307.3-216.6,294.5z M-366.1,295.7C-378,308.7-349.7,306.3-366.1,295.7z M-276.4,295.9
				C-289.9,304.8-264.9,304.2-276.4,295.9z M-116.1,296.1C-133.9,306.3-99.6,305-116.1,296.1z M-58.1,296.6
				C-72.2,305.4-43.7,309.3-58.1,296.6z M-389.1,296.7C-401.9,309.4-374.6,305.9-389.1,296.7z M-178.7,297.1
				C-192.3,310.6-164.8,307.3-178.7,297.1z M-126,297.4C-141.5,303.9-109.8,309.8-126,297.4z M-290.5,298.4
				C-303,308.5-275.4,310.4-290.5,298.4z M-349.8,299.1C-375.2,310.7-329.6,308.2-349.8,299.1z M-326.7,299.8
				C-343.7,309.4-310.7,310.1-326.7,299.8z M-423,300.2C-442.3,313.3-404.3,307.5-423,300.2z M-165.8,301.4
				C-180.4,315.2-151.3,310.7-165.8,301.4z M-301.2,301.4C-319.2,312.4-285,309.9-301.2,301.4z M-456.6,301.5
				C-471.5,312.9-438.8,305.8-456.6,301.5z M-147.7,301.6C-161.9,312.2-130.6,306.8-147.7,301.6z M-446.5,301.7
				c-13,14.3,27.7,7.9,7.9,4.7C-441.7,306.7-442.7,300-446.5,301.7z M-133.8,302.1C-152.5,316.7-115.5,308.2-133.8,302.1z
				 M-402.5,302.6C-417.6,316-382.4,309.7-402.5,302.6z M-242.4,304C-256.3,314.5-228.7,310.2-242.4,304z M-90.4,304.5
				C-107.3,314.6-73.7,313.4-90.4,304.5z M-45.6,305.4C-60.4,318.1-32.1,317.4-45.6,305.4z M-251,306
				C-271,316.1-234.5,316.4-251,306z M-382.4,306.5C-403.3,318.1-364.5,315.2-382.4,306.5z M-211,306.9
				C-226.3,315.8-195.8,314.5-211,306.9z M-223.9,307.3C-244.1,318-205.3,316.2-223.9,307.3z M-70.1,307.4
				C-88,318.1-54.6,317-70.1,307.4z M-138.9,309C-156.6,321.9-118.4,316.2-138.9,309z M-33.9,309.6C-44.8,318-22,317.8-33.9,309.6z
				 M-375.5,309.9C-388.3,322.3-360.3,318.5-375.5,309.9z M-285.4,310.3C-298.6,318.3-271.1,319.6-285.4,310.3z M-123.4,311
				C-136.3,322.7-107.7,316.6-123.4,311z M-352.6,311.2C-370.1,322.4-334.9,319.9-352.6,311.2z M-180.5,311.5
				C-198.4,321.2-164.2,321.3-180.5,311.5z M-263.9,311.6C-277.4,320.3-247.1,316.4-263.9,311.6L-263.9,311.6z M-153,312
				c-10,13.3,20.2,5.2,0.7,0.1L-153,312z M-100.2,312C-114.9,319.5-86.5,322.6-100.2,312z M-421.1,312.3
				C-437.8,320.4-406.6,320.5-421.1,312.3z M-314.9,315.2C-339.1,327.7-295.2,323.5-314.9,315.2z M-397.5,316.1
				C-415,324.9-382.3,327.4-397.5,316.1z M-87.5,316.8C-106.5,330.2-68.1,324.5-87.5,316.8z M-439.4,316.9
				c1.9,21.6-19.3,13.9-28.7,3.1c-2.9,5.6,0,14.9,2.4,19.6c11.8-3.9,41.2,2.1,30.6-20.3l-1.9-1.6L-439.4,316.9L-439.4,316.9z
				 M-241.9,317.7C-259.4,330.6-227.9,328.2-241.9,317.7z M-340.4,317.8C-356.6,325.5-324.5,327-340.4,317.8z M-449.5,318.5
				C-469,329-431.5,328.8-449.5,318.5z M-294.6,318.5C-311.3,328.6-278.5,328.5-294.6,318.5z M-29.9,318.7
				c-7.1,10.8,9.9,16.2,1.1,2.3l-0.1-1.7L-29.9,318.7L-29.9,318.7z M-272.4,318.8C-286.1,325.9-259.2,328.1-272.4,318.8z
				 M-62.5,319.2C-75.9,328-45.3,331-62.5,319.2z M-165.6,320c-11.9,2.5-22.8,16.7-6.2,21c-14.8,5.7,5.7,8.5,12.2,6.9
				c8,10.8,19.2-13.6,5.5-4.3c-12.9-0.8-3-11-0.7-13.7c-2.9-4.5-30.7,10.1-15.4,0.1C-162.8,329.3-158,325.2-165.6,320L-165.6,320z
				 M-208.2,320.2C-222.7,334-193.3,329.1-208.2,320.2z M-104.7,320.6C-121.3,328.3-90.8,331.7-104.7,320.6z M-373.4,321.3
				C-387.9,332.9-353.8,327.2-373.4,321.3z M-258.8,321.9C-274.5,333.9-244.3,331.2-258.8,321.9z M-149.1,322.8
				c-14.9,5.6,21.8,20.4,7.8,4.3C-143.3,325.1-145.8,322.4-149.1,322.8z M-411.7,323.5C-435.9,335.2-391.8,331.5-411.7,323.5z
				 M-193.2,323.9C-205.8,336.8-179,333.4-193.2,323.9z M-118.6,323.9c-18.2,10.7,9.2,18.3,2,0.5L-118.6,323.9z M-287.6,324.9
				c-16.7,0.7-9.9,31.9-2.5,11C-287.2,333.3-280.4,327.6-287.6,324.9z M-42.4,325.2C-58.6,334.9-27,336.1-42.4,325.2z M-88.3,325.5
				C-100.2,339.1-70.2,331.6-88.3,325.5z M-403.1,328.4c-9.3,10.3,17.7,12.3,23,14.7C-378,325.9-396,332.1-403.1,328.4z
				 M-212.7,329.6C-230.4,343.3-195.3,342.8-212.7,329.6z M-228.6,329.8c-12.1,12.1,19.8,5.4,0.8,0.1L-228.6,329.8z M-373.7,330
				C-389.6,343.4-359.6,341.2-373.7,330z M-330.3,330.2c-10.5,12.8,21,7.1,1.4,0.2l-1.2-0.2L-330.3,330.2L-330.3,330.2z
				 M-308.4,331.1c-11.1,11,17.1,7.5,0.7,0.1L-308.4,331.1z M-265.7,331.4C-279.6,341.7-250,342.2-265.7,331.4z M-148.5,331.8
				C-165.3,340.2-133.6,343.9-148.5,331.8z M-250,332.2C-264.1,340.8-233.8,344.6-250,332.2z M-100.6,332.6
				C-114.1,340.2-87.2,341.6-100.6,332.6z M-345.5,332.7C-364.1,344.1-329.5,341.9-345.5,332.7z M-428,333.5
				C-444.1,344.7-409.6,340.7-428,333.5z M-197.2,334.1c-13.7,2-9.9,10-1.8,11C-191.7,362.5-190.5,334.9-197.2,334.1z M-281.1,336.4
				C-294,349.5-266.5,346.2-281.1,336.4z M-29.3,336.8C-41.3,348.2-11.9,344.7-29.3,336.8z M-84.2,337
				C-98.9,347.4-68.9,348.1-84.2,337z M-167.8,337.3C-165.4,338.9-170.8,339.3-167.8,337.3z M-409.8,337.7
				C-427.8,349.5-391.2,343.4-409.8,337.7z M-456.3,338.4c-11.2,12.6,19.1,5.9,0.8,0.1L-456.3,338.4z M-368.9,339
				C-386.1,348.5-356.1,347-368.9,339z M-55.6,339C-77.4,349.3-35.3,347.1-55.6,339z M-124.3,340.5
				C-143.1,351-107.9,350.2-124.3,340.5z M-308.8,341.1C-327.1,352.5-294.2,351.3-308.8,341.1z M-108.2,341.4
				C-121.8,352.3-94.3,347.8-108.2,341.4z M-221.2,342.5C-238.9,352.7-204.6,351.9-221.2,342.5z M-319.2,343.5
				C-333.4,352.9-304.5,355-319.2,343.5z M-392.5,344C-406.2,352.8-376.8,356.8-392.5,344z M-354.2,344.1
				C-366.2,358.4-335.6,354.1-354.2,344.1z M-67.2,344.5C-82.8,352.7-51.2,351.1-67.2,344.5z M-327.5,345.5
				C-351.3,355.8-313.3,356.8-327.5,345.5z M-297.9,346.5C-318.6,357.4-281.9,355.1-297.9,346.5z M-436.3,346.5
				C-450.9,354.3-418.9,359.5-436.3,346.5z M-50.2,346.7C-63.9,357.1-34.3,353.5-50.2,346.7z M-207.9,346.7
				C-225.9,358.4-189.5,354.4-207.9,346.7z M-463.5,348C-477.9,353.4-449.2,359.8-463.5,348z M-409.7,348.3
				C-423.3,361.3-396.2,359.2-409.7,348.3z M-375.5,348.4C-391.2,360.8-361.9,360.1-375.5,348.4z M-338.4,348.5
				c-21.1,11.2,8.3,16.5,2.8,0.7L-338.4,348.5z M-84.4,348.9C-99.8,360.2-71.4,358.4-84.4,348.9z M-268.7,349
				C-283,360.9-252.6,356.4-268.7,349z M-124,350.3C-140.1,359.1-107.6,356.1-124,350.3z M-139.1,352.1
				C-152.8,358.6-126.4,361.7-139.1,352.1z M-401.2,352.8c-13.6,11.2,25.3,9.2,5.5,0.5C-397.7,358-398.6,352.2-401.2,352.8z
				 M-259.7,353C-278.3,365.4-242.8,361.4-259.7,353z M-183.4,353C-196.5,363.3-166.9,363-183.4,353z M-284,353.1
				C-298.3,361.7-269.7,364.5-284,353.1z M-236.1,353.5C-251.1,361.7-219.8,360-236.1,353.5L-236.1,353.5z M-213.4,354.1
				C-233.2,365.7-197.3,363.2-213.4,354.1z M-112.5,354.1C-125.2,364.7-95.4,365-112.5,354.1z M-102.2,354.6
				C-116.5,363.3-85.3,367-102.2,354.6z M-37,354.9C-54.7,366.6-19.6,363-37,354.9z M-163.3,356.1
				C-183.9,367.7-145.5,365.9-163.3,356.1z M-148.4,356.1C-163.2,363.2-132.7,363-148.4,356.1L-148.4,356.1z M-315.2,356.6
				C-328.4,365.4-301.8,368.3-315.2,356.6z M-448.5,356.9C-466.8,367.8-431.1,367.6-448.5,356.9z M-24.2,357.8
				C-35.6,361.1-16.9,370.6-24.2,357.8z M-420.8,358.3C-433.7,370-403.8,369.3-420.8,358.3z M-364.9,358.4
				C-381.3,368.1-349.1,367.9-364.9,358.4z M-205.9,359.2C-228.9,371.7-185.2,366.6-205.9,359.2z M-192.5,359.4
				C-211.6,367.8-178.2,368.8-192.5,359.4z M-249.9,359.9C-264,371.1-231,367.4-249.9,359.9z M-326.8,360.6
				C-340.3,369.3-311.2,366.6-326.8,360.6z M-403.6,361.8C-420.5,369.9-389.1,373.9-403.6,361.8z M-303.9,362
				C-317.7,373.2-284.7,370.8-303.9,362z M-32.6,363.2C-44.8,375.8-17.6,373.9-32.6,363.2z M-121.7,363.8
				c-8.9,10.7,17.5,12.8,22.9,18.6c1.6-5.3,22.6-9.3,10.9-13.9C-98.2,370.9-113.7,373.5-121.7,363.8L-121.7,363.8z M-76.9,364.9
				C-87.9,377.7-59,371.9-76.9,364.9z M-63,365.2C-75.8,378.6-44.6,374.8-63,365.2z M-169.8,365.3c-6.1,11.7-15.7-7-18.6,9.4
				c-6.3,12.9,10.2-7.4,9.2,4.9C-172.9,383-162.8,369-169.8,365.3L-169.8,365.3z M-137.8,365.3
				C-152.8,373.2-122.9,376.3-137.8,365.3z M-343,366.1C-355.6,380.5-319.1,370.8-343,366.1z M-385.2,367
				C-398.9,375.4-369.6,372.9-385.2,367L-385.2,367z M-289.1,367.1C-304.3,377.6-274.6,373.1-289.1,367.1z M-154.8,367.6
				C-170.3,378.6-138.4,377.4-154.8,367.6z M-256,369.3C-270.9,381.4-240.8,377.8-256,369.3z M-428.8,369.3
				C-439.3,383.9-406.1,375.6-428.8,369.3z M-274.7,369.4c-13.9,12.7,26.9,6.1,5,2.1l-1.5,0L-274.7,369.4L-274.7,369.4z
				 M-48.7,370.8C-62.4,379.1-30,383.5-48.7,370.8z M-202.1,371.5C-215.8,377.8-189.5,381.2-202.1,371.5z M-403.7,372
				C-422.7,386.5-385.7,378.6-403.7,372z M-30.2,374c-12.7,1.9-11.1,18.8,0.8,8C-25.5,379.8-24.6,374.3-30.2,374z M-451.6,374.2
				C-469.2,385.1-434.5,383.2-451.6,374.2z M-222.1,374.5C-234.8,387.7-199.7,379.2-222.1,374.5z M-327.3,375.7
				C-344.7,385.9-310.5,384.6-327.3,375.7z M-283.5,375.8C-296.1,386.6-267.8,387.7-283.5,375.8z M-296.4,376.5
				C-316,384.9-275.1,386.6-296.4,376.5z M-359.8,376.9C-372.1,388.8-343.7,387.6-359.8,376.9z M-141.9,379.6
				C-155.9,388.5-127.1,389.7-141.9,379.6z M-414.9,379.8C-430,391.5-397.4,388.9-414.9,379.8z M-114.4,380
				C-128,392.8-100.2,389.4-114.4,380z M-171.7,381.3C-185.5,390-157.4,391.8-171.7,381.3z M-153.3,381.3
				C-169.4,390.9-137.9,391-153.3,381.3z M-127.4,381.7c-6.2,3.9-3.5,12.3-9.6,15.9c6.6,4.4,32.7-2.1,12.7-11l-2.1-2.2L-127.4,381.7
				L-127.4,381.7z M-396,381.7C-408.9,391.1-379.4,392.4-396,381.7z M-104.9,382.2C-120.6,392.3-89.6,395.1-104.9,382.2z
				 M-381.1,382.7C-395.8,394.6-366.1,391.2-381.1,382.7z M-308.3,383.9C-318.9,399.5-290.4,392.7-308.3,383.9z M-92.8,384.1
				C-106.5,393-78.1,396.3-92.8,384.1z M-431.9,384.1C-450.7,399.3-413.4,391.2-431.9,384.1z M-23.7,384.9c-4.7,2.3-21.2,7-8.1,9.3
				C-26.6,393.5-24.9,389.3-23.7,384.9z M-449.5,385.2C-459.1,392.1-436.7,396.5-449.5,385.2z M-372,385.9
				C-388.5,394.4-352,393.8-372,385.9L-372,385.9z M-74.6,386.5c-10.9,9.3-9.7,27.8,9.7,22.1c9.4,1.7,9.5-12,16.2-1
				c10.2-5.5-12.5-22.7-11-7.8c-3.1-15.2-8.8-2.9-13.1,1.3C-80.4,395.5-64.1,390.3-74.6,386.5L-74.6,386.5z M-43.4,386.5
				C-58.4,394.4-27.3,397.4-43.4,386.5z M-401.4,387.2C-416.3,399.2-386.2,396-401.4,387.2z M-257.4,388
				C-274.5,395.1-240.3,400-257.4,388z M-344.9,388.4C-357.1,396.6-331.5,396.7-344.9,388.4z M-268.9,388.6
				C-281.7,402-254.9,398.2-268.9,388.6z M-183.8,388.9C-199,395.2-168.7,401.5-183.8,388.9z M-241.4,389.2
				C-259.6,397.9-227.1,398.3-241.4,389.2z M-283.3,390.1c-14,4.9,8.1,6,0,13.4C-270.4,407.8-269.9,389.4-283.3,390.1z
				 M-356.4,390.8C-371,399.3-341.7,403.6-356.4,390.8z M-160.4,391.4C-172.6,401.9-144.2,399.2-160.4,391.4z M-171.2,391.7
				C-186.3,403.6-154.4,399.1-171.2,391.7z M-378.8,392.5C-392.2,404.7-360,399.8-378.8,392.5z M-216.2,392.9
				C-231.5,405.6-202.4,404.9-216.2,392.9z M-292.8,393.6C-307.4,402.4-276.4,404.1-292.8,393.6z M-387.6,393.9
				C-410.2,405.8-367.3,401.8-387.6,393.9z M-409.7,394.5C-422.7,408-388,399.8-409.7,394.5z M-109.2,395
				C-122.8,403.7-93.9,404.6-109.2,395z M-365.8,395C-376.5,407.4-348.8,404.7-365.8,395z M-92.5,395.3
				C-106.6,406-75.1,399.9-92.5,395.3z M-148,395.9C-163.6,407.8-132,403.8-148,395.9z M-251.5,397
				C-269.3,405.6-237.6,405.8-251.5,397z M-317.6,398C-335.4,407.1-301.7,408.9-317.6,398z M-341.8,398.1
				C-356.1,406.6-325.8,403.6-341.8,398.1L-341.8,398.1z M-29.8,398.2C-41.6,404.8-26.9,412.9-29.8,398.2z M-261.3,399.4
				C-275.7,412.7-247.8,409.8-261.3,399.4z M-190,399.7C-206,411.3-173.6,408.4-190,399.7z M-435.9,399.8
				C-450.7,411.4-419.5,408.3-435.9,399.8z M-421.1,399.8C-434.6,412.7-406.3,409.6-421.1,399.8z M-381.2,401.7
				C-393.4,415.4-366.7,411.8-381.2,401.7z M-371.9,401.7C-384.2,414.4-356.7,412.4-371.9,401.7z M-399.8,402.7
				C-413.6,414.3-383.5,412.3-399.8,402.7z M-136.5,403C-155.9,414.3-117.5,411.1-136.5,403z M-286.9,403.5
				C-302.1,410.9-273.1,413.8-286.9,403.5z M-121.6,404.4C-139.4,412.5-103,413.8-121.6,404.4z M-164.6,404.5
				c-13.5-1.3-13.7,11.6-0.3,8.9C-146.4,413.8-153.3,408.5-164.6,404.5z M-273.6,404.9c-17.9,6.2,18.1,20.3,3.6,5.5
				C-270.4,408.1-270.2,404.3-273.6,404.9z M-111.4,406.2C-126.9,416.3-95.4,418.1-111.4,406.2z M-354.4,406.2
				C-369.4,419.8-339.6,415.6-354.4,406.2z M-34,408.2C-44.8,409-34.6,420.7-34,408.2z M-44.2,408.9c-12.9-2.9-17.4,13.5-1,7.7
				C-38.4,416.6-37.5,409.9-44.2,408.9z M-86.1,409.5C-103.8,417.2-71.2,420.1-86.1,409.5z M-333.1,410.4
				C-349.8,422.7-312.8,415.5-333.1,410.4z M-389.3,410.8C-402.5,425.4-374.5,422.1-389.3,410.8z M-242.1,411.3
				C-258.1,420.7-226.9,425.6-242.1,411.3z M-223.2,411.6c-13,9.4,16.5,10.1,0.5,0.2L-223.2,411.6L-223.2,411.6z M-256.7,411.8
				C-269.1,419.9-243.5,421.1-256.7,411.8z M-147.9,411.9C-167.2,424.2-132,420.8-147.9,411.9z M-205.4,411.9
				C-216.5,422.5-191.1,418.6-205.4,411.9z M-427.3,412.3C-447.2,421.8-408.3,419.3-427.3,412.3z M-192.6,412.4
				C-209.1,425.1-176,420.9-192.6,412.4z M-102.9,412.6C-120.2,422.5-87,423.1-102.9,412.6z M-371.6,412.6
				C-385.6,421.2-355.4,418.5-371.6,412.6L-371.6,412.6z M-296.5,412.9C-320.4,425.2-279.4,423.1-296.5,412.9z M-280.1,415.2
				C-294.4,427.3-265.2,425.9-280.1,415.2z M-121.2,415.6C-136.6,428.5-104,423.2-121.2,415.6z M-310.3,415.9
				C-324.5,422.6-297.8,425-310.3,415.9z M-164.3,416C-178.4,428.3-147.4,423.5-164.3,416z M-133.9,416.5
				C-148.9,423.8-120.3,426.5-133.9,416.5z M-326.5,418.5c-11.6,9.1,18,22.7,6.3,4.6C-321,420.5-323.7,418.4-326.5,418.5z
				 M-417.1,419.3C-433.1,431-399.6,427.6-417.1,419.3z M-66,420.4C-80.1,428.5-49.8,426.2-66,420.4L-66,420.4z M-262.5,420.5
				C-277.2,429.5-245.6,431.3-262.5,420.5z M-377,421.2C-392.9,430.1-359.5,428.6-377,421.2z M-95.6,421.4
				C-109.1,428.4-83,430.1-95.6,421.4z M-80.7,421.7C-94,434.2-61.9,428-80.7,421.7z M-190.5,422.1c-10.3,5-0.9,25.6,2,8.1
				C-186.7,427.4-185,422-190.5,422.1z M-362.4,423.2C-383.5,433.6-342.9,431.6-362.4,423.2z M-274.6,423.5
				C-288.4,430.1-261.9,433.3-274.6,423.5z M-251.9,424.3C-266.9,436.8-238.5,436.3-251.9,424.3z M-207.6,424.4
				C-226.2,436.4-193.6,435-207.6,424.4z M-167.6,424.7C-182.4,433.2-153,433.9-167.6,424.7z M-139,424.9
				C-153.4,435.6-124.1,432.6-139,424.9z M-224.7,425.2c-9.7,12,20.3,4.4,1,0.1L-224.7,425.2z M-336,425.4
				C-359.3,434-320.7,435.9-336,425.4z M-236.3,425.7C-250.9,437.8-215.5,431.3-236.3,425.7z M-153.8,426.3
				c-9.4,12.1,19.8,4.7,0.9,0.1L-153.8,426.3z M-398.9,427.6C-412.4,437.9-384.3,432.9-398.9,427.6z M-109.7,427.9
				C-122.8,440.8-92.4,438.5-109.7,427.9z M-127.1,429.8c-12.2,11.2,20.2,5.9,1.2,0.2L-127.1,429.8L-127.1,429.8L-127.1,429.8z
				 M-383.7,430.2c-13.8,0.5-8.6,21.9-0.2,7.3C-377.2,436.3-376,431.1-383.7,430.2z M-270.1,430.7
				C-286.8,441.6-253.2,439.5-270.1,430.7z M-355.1,431.4c-11.7,6.5-17.6,24.6-1.8,11.5C-353.5,447.2-347.5,430.2-355.1,431.4z
				 M-174.4,432.4C-194.1,443.3-158.4,441.7-174.4,432.4z M-373,433.2C-390.1,442.9-356.7,443-373,433.2z M-307.2,433.2
				C-328.2,446-287.5,440.7-307.2,433.2z M-86.5,433.5C-100.6,444.4-70.7,443.3-86.5,433.5z M-217,434.9c-8.7-0.3-27.6,10.8-9.2,9.2
				c14.5-4.7-4.9,17.5,11.7,7.3C-209.7,446.7-209,436.7-217,434.9L-217,434.9z M-346.8,435.5C-361.9,444.1-329.8,446.3-346.8,435.5z
				 M-72.5,435.7C-89.7,448-57.2,440.8-72.5,435.7z M-409,437.5C-402,448.7-394.7,438.4-409,437.5z M-195.8,438.1
				C-210.1,448.4-179.8,448.4-195.8,438.1z M-119.5,438.9C-133.8,450.1-102.1,449-119.5,438.9z M-284.9,439
				c-9.5,12,19.6,4.9,0.8,0.1L-284.9,439z M-295.7,439.2C-307.1,452.2-278.4,447.1-295.7,439.2z M-380,439.4
				C-397.6,453.2-364.1,448.3-380,439.4z M-180.5,440.3C-198,451-164,448.1-180.5,440.3z M-205.7,440.4
				C-221.1,452.5-191.3,451.2-205.7,440.4z M-157.5,442.6C-174.4,452.1-142.1,453.2-157.5,442.6z M-141.6,443
				C-154.6,453.9-123.2,449.9-141.6,443L-141.6,443z M-99.3,444.1C-114,456.4-82.1,452.1-99.3,444.1z M-309,444.9
				C-328.9,454.4-294.7,454.4-309,444.9z M-254.7,445.1C-267.3,456.1-235.2,450.7-254.7,445.1L-254.7,445.1z M-349.9,446
				C-363.8,454.5-336.4,454.6-349.9,446z M-79.2,446.1C-92.5,454.4-69.4,455.6-79.2,446.1z M-169.6,446.3
				C-183.7,455.8-152.4,453.1-169.6,446.3z M-287.9,446.6C-302.9,457.1-273.4,454.9-287.9,446.6z M-229.4,446.8
				C-244.4,459.3-214.8,456.6-229.4,446.8z M-271.1,447.9C-283.5,459.1-251.2,455.8-271.1,447.9z M-299.5,448.3
				C-309.5,462-280.8,455.1-299.5,448.3z M-122,448.7C-141.4,460.3-105.5,458.2-122,448.7z M-328.2,450.5
				C-342.3,459.4-310.7,462.5-328.2,450.5z M-187,450.8C-197,465.2-163.6,456.9-187,450.8z M-155.7,450.9
				c-11.7,7.9,4.4,42.5,4.8,18.7c-0.6-6.6,14.6-9.4,0.4-12.3C-155.3,457.1-151.5,450.7-155.7,450.9L-155.7,450.9z M-242.7,451.5
				C-256.1,460.1-226.4,463.2-242.7,451.5z M-371.2,451.8C-390.6,463.2-355.1,460-371.2,451.8z M-356.4,452.5
				C-372.2,464.9-338.4,461.1-356.4,452.5z M-201.7,452.8C-214.5,460-189.1,461.9-201.7,452.8z M-111.8,453.7
				C-124.6,461.6-98.7,463.1-111.8,453.7z M-88.7,455.6C-105.2,464.7-74.3,465.7-88.7,455.6z M-135.2,455.7
				C-150.2,467.8-120.6,466.2-135.2,455.7z M-341.6,455.9C-360.6,464-327.1,466.8-341.6,455.9z M-227.8,456
				C-243.9,464.6-212.9,466.6-227.8,456z M-171.2,456.8C-191.1,467.9-150.9,462.8-171.2,456.8z M-274.4,457.4
				C-287,464.7-261.9,466.5-274.4,457.4z M-98.9,458.8c-18.2,8.9,3,19.1,3.9,1.7l-1.4-1.1L-98.9,458.8L-98.9,458.8z M-295.9,460.5
				C-307.3,471.7-279.5,467.4-295.9,460.5z M-281.9,460.9C-299.4,470.3-266.3,470.7-281.9,460.9z M-357.3,461.1
				C-375.3,471.5-339.1,470.3-357.3,461.1z M-265.2,461.2C-284.2,472.3-249,469.7-265.2,461.2z M-205.3,462
				C-226.8,470.1-190.9,473.7-205.3,462z M-125.7,462.6C-145.8,478.4-105.1,466.6-125.7,462.6z M-310.7,463
				C-326.5,476.6-295.9,471.9-310.7,463z M-163.7,464.3C-177.8,475.5-149.7,476-163.7,464.3z M-185,465.1
				C-209.5,477.1-164.5,473.3-185,465.1z M-251.3,465.1C-267.8,477.3-233.3,472-251.3,465.1z M-233.1,465.4
				C-245.9,473.8-218.5,474.5-233.1,465.4z M-216.3,466c-18.2,3.4-9.4,30.5,1.4,14.8c-11.7-7.9,6.5-3.8,1.4-13.8L-216.3,466
				L-216.3,466z M-115.5,466.3C-138.1,480-96.8,474.4-115.5,466.3z M-141.1,467.2C-164.8,477.2-117.7,475.4-141.1,467.2z
				 M-334.4,467.6C-348.5,476-318.4,479.7-334.4,467.6z M-129,470.7C-144.5,481.1-113.2,478.9-129,470.7z M-100.7,473
				c-9.1-0.4-17.7,12.9-5.4,3.8C-106.6,476.4-97.1,473.4-100.7,473z M-202.7,474C-219.2,482.7-187.7,484.3-202.7,474z M-193.1,474.1
				C-210.2,483-179.7,483-193.1,474.1z M-172.9,474.5C-191.8,487.2-153.9,481.4-172.9,474.5z M-137.4,474.5
				C-152.7,486-123.9,481.3-137.4,474.5z M-323,475.2C-338.5,483.8-306.5,481.5-323,475.2z M-273.1,475.5
				C-291.8,489.6-256.5,483.5-273.1,475.5z M-295.1,475.8C-309,484-278.7,488.4-295.1,475.8z M-237.7,479.1
				C-255.4,491.1-222.7,490.1-237.7,479.1z M-122.9,480c-10.2,4.3-13.6,15.2,0.8,6.1C-116.4,485-118,479.9-122.9,480z M-159,482.1
				C-172.1,494.2-138.8,487.3-159,482.1z M-309.6,482.5C-325.7,490.4-294.8,493.4-309.6,482.5z M-207.8,482.5
				C-227.7,495.4-191.5,492.5-207.8,482.5z M-257.8,484.1C-274.5,492.4-242.6,494.8-257.8,484.1z M-189.7,484.1
				C-206.1,494.2-173.7,493.8-189.7,484.1z M-223.6,485.5C-245.4,497.1-205.6,493.3-223.6,485.5z M-140.2,485.8
				C-155,497.7-123.5,491.6-140.2,485.8z M-181.6,488.7c-2.9,7.7-32.1,5.5-13.9,13.3C-190.5,503.1-169.9,493.4-181.6,488.7z
				 M-162.6,491.7C-186.3,502.9-143.7,499.3-162.6,491.7z M-216,491.8C-229.5,504.5-199.1,501.1-216,491.8z M-174.7,493
				C-189.3,503.4-158.8,503.1-174.7,493z M-238.1,500C-251.6,504.5-224.6,502.6-238.1,500z"/>
			
				<radialGradient id="path26285_1_" cx="-246.8814" cy="319.5294" r="228.2395" gradientTransform="matrix(1 0 0 -0.8679 -1.093000e-05 593.0325)" gradientUnits="userSpaceOnUse">
				<stop  offset="0" style="stop-color:#FFFFFF"/>
				<stop  offset="0.4" style="stop-color:#FFFFFF"/>
				<stop  offset="1" style="stop-color:#FFFFFF;stop-opacity:0"/>
			</radialGradient>
			<path id="path26285" inkscape:connector-curvature="0" class="st10" d="M-275.8,118.8C-285,124.7-262.1,120.4-275.8,118.8z
				 M-306.6,119.2C-314.9,115.7-309.5,125-306.6,119.2z M-261.3,119.2C-258.7,130.1-247.1,117.5-261.3,119.2z M-284.4,119.3
				C-294.7,127-277.8,125.8-284.4,119.3z M-327.2,121.9C-337.4,126-316.7,126.1-327.2,121.9z M-235.8,122.4
				C-239.8,131.8-225.3,120.6-235.8,122.4z M-337.5,124C-348.4,122.5-336.8,130.3-337.5,124z M-267.3,125.8
				C-275.6,132.1-258.6,132.9-267.3,125.8z M-250.3,125.8C-255.3,133-241.4,128.7-250.3,125.8z M-350.5,127.5
				C-362.5,129.2-348.5,138.6-350.5,127.5z M-210.3,127.8C-219.4,135.2-202.8,132.5-210.3,127.8z M-345.6,129.1
				C-354.8,134.4-335.6,132.3-345.6,129.1z M-305.7,131C-311.3,139.7-297.5,137-305.7,131z M-226.8,132.1
				C-235,136.8-219,136.5-226.8,132.1z M-319.2,132.2C-329.1,139.6-311,137.9-319.2,132.2z M-334.6,133.1
				C-343.4,137.8-326.6,137.9-334.6,133.1z M-288.4,133.4C-296.4,139.6-279,138.4-288.4,133.4z M-354.4,134
				C-363.6,140-346.1,139.8-354.4,134z M-274.1,135.5C-286.8,140.9-264.6,140.1-274.1,135.5z M-249.3,135.6
				C-254.2,145.2-237.4,142.6-249.3,135.6z M-188.5,137.3C-200.2,143.2-181.5,146.8-188.5,137.3z M-347.8,137.6
				C-357.4,144-339.3,142.9-347.8,137.6z M-214.6,137.7C-224,143.8-206.1,143.1-214.6,137.7z M-309.6,139.5
				C-320,144.7-299.8,142.7-309.6,139.5z M-360.3,139.6C-369.5,144.9-350.8,143-360.3,139.6z M-200.4,141.4
				C-208.7,147.6-193,146.9-200.4,141.4z M-382.6,143.7C-391.2,147-382.3,149-382.6,143.7z M-315.4,144.5
				C-324.5,149.9-306.5,149.3-315.4,144.5z M-263.6,144.7C-269.5,153.3-254.8,150.4-263.6,144.7z M-303.8,146.3
				C-314.2,152.4-294.9,151.3-303.8,146.3z M-228.6,146.6C-232,157-215.7,151.3-228.6,146.6z M-235.6,147.4
				C-244.4,152.7-226.8,152.7-235.6,147.4z M-247.9,148.3C-255.9,153-240.5,152.6-247.9,148.3z M-368.1,148.9
				C-374.6,156.6-357.9,153.9-368.1,148.9z M-270.6,150.4C-281.2,155.8-260.5,154.9-270.6,150.4z M-350.3,151.1
				C-356.5,156.9-341.1,153.2-350.3,151.1z M-337.8,151.2C-346.3,157.4-329,157.7-337.8,151.2z M-325.7,152.9
				C-335.5,160-319.3,159.1-325.7,152.9z M-289.5,154.7C-300.6,158.3-284.3,162-289.5,154.7z M-393.6,154.9
				C-401,160.9-385.2,160.5-393.6,154.9z M-156.8,155.9C-162.2,162.5-150.3,162.7-156.8,155.9z M-196.8,158
				C-203.7,164.5-190.4,167.4-196.8,158z M-258.8,159.1C-268.6,163.6-250.3,162.4-258.8,159.1z M-278.7,159.1
				C-287.6,166.6-270.8,164.9-278.7,159.1z M-213.9,159.3C-226.3,165.3-202.2,162.8-213.9,159.3z M-173.1,159.8
				C-179.5,167-161.8,162.5-173.1,159.8z M-311.3,160.5C-320.1,166.8-302.8,166.8-311.3,160.5z M-144.4,160.9
				C-153.5,167.7-137.2,166.2-144.4,160.9z M-224.8,162.4C-228,172-212.2,164.7-224.8,162.4z M-239.6,162.9
				C-244.6,170-229.7,165.9-239.6,162.9z M-126.6,163.8C-134.6,168.9-119,168.8-126.6,163.8z M-389.6,164.7
				C-395.5,173.9-378.4,169.6-389.6,164.7z M-271,165C-281.2,170.1-261.9,168.9-271,165z M-406.3,165.7
				C-414.5,173.2-395.6,169-406.3,165.7z M-158.8,165.7C-167.2,171.6-149.7,169.9-158.8,165.7z M-348.1,166
				C-353.2,174-338.6,170.2-348.1,166z M-204.6,167C-215.9,172.1-192.6,169.7-204.6,167z M-247.1,168
				C-256.5,175.2-238.1,173.9-247.1,168z M-288,168.4C-292.5,175.5-278.6,170.8-288,168.4z M-193.2,169.4
				C-202.2,175.1-183.1,173-193.2,169.4z M-175.7,169.9C-186.5,174.9-171,178.2-175.7,169.9z M-410.4,170.1
				C-418.8,173.6-405,176.3-410.4,170.1z M-169.7,171.2C-177.8,175.9-161.6,174.7-169.7,171.2z M-113.5,171.3
				C-121.3,177.7-105.3,179.2-113.5,171.3z M-372.6,171.6C-379.7,177.3-363.1,172.9-372.6,171.6z M-184.3,172.4
				C-193,178.5-176,178.7-184.3,172.4z M-209.3,172.9C-214.2,181.8-188.7,176.9-209.3,172.9z M-360.1,173.2
				C-366.9,179.8-348.8,174.7-360.1,173.2z M-232.4,173.5C-238.9,180.2-225.1,180.6-232.4,173.5z M-213.6,174.4
				C-223.2,182.9-206.1,181.3-213.6,174.4z M-295.2,175C-304.2,182.1-289,180.6-295.2,175z M-137.6,175
				C-145.1,180.3-130,180.3-137.6,175z M-414.9,175.1C-421.7,177.1-412.9,178.6-414.9,175.1z M-120.7,175.7
				C-130,181.2-111.2,180.9-120.7,175.7z M-198.2,177.4C-204.9,185.6-185.7,178.6-198.2,177.4z M-285.8,178.1
				C-295.1,183.5-278.4,183.3-285.8,178.1z M-371.1,178.4C-377.6,187.1-361.3,184-371.1,178.4z M-322.6,178.6
				C-332.4,184.3-315.8,184.4-322.6,178.6z M-274.4,179C-286.1,183.8-269,187.6-274.4,179z M-149.2,179.5
				C-159.1,185.4-139.6,183.4-149.2,179.5z M-409.4,179.8C-416,186.2-402.1,188.5-409.4,179.8z M-189.8,180.4
				C-198.7,185.9-182.8,185.4-189.8,180.4z M-211.2,180.6C-218.6,186.2-203.9,186.3-211.2,180.6z M-262.6,181.2
				C-274.4,187.7-257.3,189.3-262.6,181.2z M-176,181.3C-185,187.9-168,186.5-176,181.3z M-250.9,181.6
				C-258.3,186.3-243.5,186-250.9,181.6z M-126.6,182.5C-136.6,187.9-118.2,187.3-126.6,182.5z M-342.6,183.5
				C-352.2,189.6-334.5,189.2-342.6,183.5z M-137.1,184.2C-146.9,190.1-131.4,193.5-137.1,184.2z M-362.7,185
				C-368.8,194.9-346.7,185.4-362.7,185z M-296.3,185.5C-304.7,193.4-289.6,192.3-296.3,185.5z M-109.3,187.6
				C-117.9,193.4-100.6,192.8-109.3,187.6z M-396.1,188.2C-404.3,193.7-388.5,193.1-396.1,188.2z M-164.8,188.3
				C-172.2,194.5-152.7,190.1-164.8,188.3z M-224.4,188.5C-231.7,198.1-211.1,189.7-224.4,188.5z M-312.5,188.9
				C-318.2,195.9-301.1,191.9-312.5,188.9z M-205,189C-213.1,195.6-197.2,195.9-205,189z M-273.3,189.6
				C-281.4,195.7-266.7,194.9-273.3,189.6z M-182.3,190.3C-190.5,194.9-174.5,195.1-182.3,190.3z M-419.9,190.4
				C-426.8,198.9-408.6,195.7-419.9,190.4z M-129.2,190.5C-133.3,199.8-117.5,189.7-129.2,190.5z M-427.4,190.7
				C-435.7,194.9-421.1,195.7-427.4,190.7z M-149.7,190.7C-157.7,195.6-142,195.3-149.7,190.7z M-234.8,190.7
				C-245,196.5-226.3,196-234.8,190.7z M-322.5,193C-329.8,198.8-315.1,198.4-322.5,193z M-191.7,194
				C-201.6,201.9-185.1,201.1-191.7,194z M-381.8,195C-388.7,202.4-370.2,196.9-381.8,195z M-92.9,195.3
				C-98,203.2-82.1,196.7-92.9,195.3z M-242.8,196C-251.3,203.1-235.9,202.4-242.8,196z M-213.4,197.6
				C-220.1,204-207,206.1-213.4,197.6z M-255,199C-262.5,204.3-248.2,204.3-255,199z M-126.7,199.9C-135,207-118.8,207-126.7,199.9z
				 M-205.9,201C-208.3,210.9-191,203.4-205.9,201z M-133,201.3C-144.2,205.6-123.1,204.3-133,201.3z M-307.1,201.5
				C-314.7,207.6-300.6,209.1-307.1,201.5z M-353.4,201.6C-361.1,209.3-347.5,208.4-353.4,201.6z M-153.7,202.2
				C-161.2,208-146.2,207.7-153.7,202.2z M-81.3,202.3C-89.4,207.9-72.4,206.2-81.3,202.3z M-414.7,202.6
				C-419.6,209.1-408.9,210-414.7,202.6z M-330.2,202.6C-339.1,208.2-322.3,207.6-330.2,202.6z M-168.6,202.7
				C-178.6,208.1-159.4,206.9-168.6,202.7z M-277.1,202.8C-286.4,208.2-268,208.3-277.1,202.8z M-114.2,202.8
				C-127.9,207.9-102.6,206.3-114.2,202.8z M-322.2,203.9C-330.5,210-311.3,205.4-322.2,203.9z M-221.1,204.6
				C-230.2,209-212.7,207.8-221.1,204.6z M-394.9,205.3C-402.4,211.7-387.9,212.2-394.9,205.3z M-314.2,207
				C-320.8,214.2-307,215.9-314.2,207z M-121.8,207.1C-130.9,212.8-112.9,212.5-121.8,207.1z M-129.6,207.7
				C-137.4,211.9-121.9,212.1-129.6,207.7z M-246.1,208C-254.5,213.1-237.9,213.3-246.1,208z M-97.1,208.2
				C-100.3,218-81.9,211.7-97.1,208.2z M-83.9,208.2C-91.1,213.2-76.2,212.3-83.9,208.2z M-368.5,208.9
				C-373.6,215.3-360.4,211.9-368.5,208.9z M-259.2,209.1C-264.8,218.1-250.6,215.2-259.2,209.1z M-234.7,209.6
				C-243.1,214.5-226.9,214.3-234.7,209.6z M-107.2,210.4C-115.9,215.1-100.8,215.1-107.2,210.4z M-182.6,211.1
				C-192.5,216.7-173.2,214.7-182.6,211.1z M-293.9,211.2C-303.6,217.5-284.9,217-293.9,211.2z M-210.5,212.3
				C-216.8,218.2-201.7,213.9-210.5,212.3z M-332.8,212.7C-338.1,219.6-324.3,215.7-332.8,212.7z M-75,212.8
				C-81.9,218.3-67.6,219.2-75,212.8z M-442.8,213.7C-451,221-432.7,216.1-442.8,213.7z M-431.6,215
				C-442.2,222.8-424.3,221.6-431.6,215z M-115.6,215C-127.5,218.5-110.4,222.1-115.6,215z M-313,215.1
				C-319.9,222.7-302.9,220.2-313,215.1z M-195.8,215.8C-204.9,221.3-187.5,220.7-195.8,215.8z M-65.9,215.8
				C-72.7,224.3-52.7,217.3-65.9,215.8z M-413.4,216.8C-419,222.6-404.8,219.1-413.4,216.8z M-133.3,217
				C-139,224.4-123.5,220.4-133.3,217z M-384.9,218C-396.8,222.8-373.9,221.6-384.9,218z M-276.4,218
				C-287,222.5-267.3,222.3-276.4,218z M-155.6,218.3C-168.1,223.9-144.6,221.4-155.6,218.3z M-102.6,218.7
				C-109.2,225.4-96.1,225-102.6,218.7z M-85.9,218.7C-99.1,221.2-78.4,224-85.9,218.7z M-351.9,219.4
				C-366,224.2-343.6,224.4-351.9,219.4z M-246,219.7C-255.2,226.4-237.6,225.5-246,219.7z M-371.3,220
				C-379.8,224-364.2,223.6-371.3,220z M-266.4,221C-271.2,227.7-260.7,228.4-266.4,221z M-286.8,222.3
				C-295,227.4-278.9,227.3-286.8,222.3z M-402.2,223.1C-406.4,231.1-392,226.9-402.2,223.1z M-68.6,223.4
				C-79.3,229.3-61.3,229.5-68.6,223.4z M-233.3,223.5C-242.2,229.2-224.7,228.8-233.3,223.5z M-181,223.7
				C-186.6,232.9-170.2,228.2-181,223.7z M-253.3,224.4C-260.3,232-239.9,225.4-253.3,224.4z M-75.8,225.2
				C-84.5,231.6-67.4,231.8-75.8,225.2z M-317.2,225.7C-322.6,235.1-304.1,227.1-317.2,225.7z M-365.1,226.6
				C-373.2,232.2-356.6,232.6-365.1,226.6z M-55.8,227.4C-58.1,231.9-48,232.1-55.8,227.4z M-241.7,227.4
				C-246.7,236-229.8,230-241.7,227.4z M-107.4,228.2C-115.8,234-99.7,233.3-107.4,228.2z M-211.4,228.4
				C-220.8,233.6-202.6,231.7-211.4,228.4z M-259.7,229.6C-267.9,235.2-251.8,234.4-259.7,229.6z M-276,229.7
				C-287.1,235.1-263.6,232.7-276,229.7z M-437.9,229.8C-446,234.6-430.1,234.2-437.9,229.8z M-385.3,233.2
				C-391.7,239.4-376.7,235.9-385.3,233.2z M-351,233.2C-361.6,237.9-345.7,241.5-351,233.2z M-227.8,233.2
				C-232.9,240.3-216.7,235.1-227.8,233.2z M-294.9,233.5C-303.3,239.9-284.2,237.9-294.9,233.5z M-61.5,233.9
				C-68.7,239.7-54.8,239.4-61.5,233.9z M-142.5,234.2C-152.5,243.3-136.1,241.7-142.5,234.2z M-195.2,234.2
				C-201.4,241.1-186.9,241.5-195.2,234.2z M-373.9,234.5C-382.5,240.1-365.3,239.5-373.9,234.5z M-411.8,235.5
				C-423.7,240.1-401.1,239.1-411.8,235.5z M-74.2,235.7C-85.5,240.6-69.2,244.1-74.2,235.7z M-280.5,235.9
				C-291.8,241.2-268.3,239.2-280.5,235.9z M-335,236.1C-344.4,241.1-325.9,239.3-335,236.1z M-251.1,236.9
				C-261.3,242.5-243.9,242.4-251.1,236.9z M-167.8,237.1C-173.3,243.8-158.2,239.3-167.8,237.1z M-427.2,237.5
				C-435.1,242-419.1,241.7-427.2,237.5z M-262.8,238.7C-271.5,244.2-253.6,244.5-262.8,238.7z M-447.8,239.1
				C-457.2,245-437.9,245-447.8,239.1z M-456.3,239.3C-461.8,244-454.6,242.4-456.3,239.3z M-393.9,239.3
				C-403.9,244.7-386.7,245-393.9,239.3z M-89.7,240.3C-99.4,244.4-80.9,243.6-89.7,240.3z M-441.2,240.5
				C-449,245.6-433.2,244.2-441.2,240.5z M-313.6,240.5C-319.8,246.5-307.2,248.8-313.6,240.5z M-216.9,240.5
				C-225.8,246.1-207.6,246.5-216.9,240.5z M-114.8,241.2C-121.3,248.1-105.3,245.1-114.8,241.2z M-185.9,241.5
				C-194.1,248-177.7,248.5-185.9,241.5z M-47.5,241.8C-53.9,246.5-39.9,248.9-47.5,241.8z M-404.6,242.4
				C-413,249.4-392.8,243.5-404.6,242.4z M-61.5,243.2C-73,246.3-55,249.3-61.5,243.2z M-199.5,243.9
				C-207.5,250.3-192.5,251.1-199.5,243.9z M-138.1,244C-146.6,249.9-130.1,249.7-138.1,244z M-101,244.1
				C-109.9,249.4-92.5,248.4-101,244.1z M-144.7,244.7C-151.1,251.8-138,254.7-144.7,244.7z M-232.9,245
				C-242.2,251-220.5,246.6-232.9,245z M-156.4,245.2C-164.1,252-147.4,253.8-156.4,245.2z M-380.4,246
				C-390.4,250.9-373.7,250.9-380.4,246z M-459.3,246.1C-466,251.8-456.5,249.9-459.3,246.1z M-419,246.7
				C-429.3,252.5-409.1,250.5-419,246.7z M-434.6,247C-442.6,253-425.5,251.5-434.6,247z M-125.3,247
				C-132.1,253.8-117.5,254.3-125.3,247z M-222.2,247.3C-231.4,254.8-214.9,253.4-222.2,247.3z M-243.5,248.1
				C-251.4,252.9-236.2,252.7-243.5,248.1z M-271.7,248.4C-278.3,254.7-266.4,255.9-271.7,248.4z M-292.8,248.8
				C-302.9,254-284.8,254-292.8,248.8z M-87.8,249.4C-94.9,254.6-80,253.4-87.8,249.4z M-212.9,249.8
				C-223.9,254.5-208,258.5-212.9,249.8z M-334,250C-345.9,255.9-324.3,254.8-334,250z M-429.3,250.1
				C-435.7,257.2-417,251.9-429.3,250.1z M-164.5,250.2C-176.9,255-154.8,253.7-164.5,250.2z M-251.7,250.4
				C-260.7,254.6-245,254.5-251.7,250.4z M-145,251.7C-152.1,259.2-133.3,253.2-145,251.7z M-354.9,251.8
				C-364.2,258.3-341.7,252.9-354.9,251.8z M-53.5,251.8C-61.2,257.6-46.2,257.1-53.5,251.8z M-70.8,252.9
				C-73.8,262.8-56.6,255.6-70.8,252.9z M-368.6,253.6C-376.9,259.3-360.7,258.7-368.6,253.6z M-418.4,253.8
				C-427.6,259.7-409.3,259.5-418.4,253.8z M-398,254.6C-405.7,260.9-389.5,262.6-398,254.6z M-314.2,255.1
				C-320.3,260.8-308.8,262.6-314.2,255.1z M-118.7,255.9C-125.8,262.5-108.4,257.1-118.7,255.9z M-447.5,256.4
				C-456.3,261.7-438.1,259.8-447.5,256.4z M-235.8,257C-248.8,262-225.5,260.6-235.8,257z M-109.3,257.6
				C-115.2,265.6-99.9,262.7-109.3,257.6z M-282.3,258C-285.3,268-270.4,260.7-282.3,258z M-194.4,258
				C-202.4,263.5-186.1,262.2-194.4,258z M-244.3,258.4C-253.3,264.1-235.3,264.2-244.3,258.4z M-438.5,258.6
				C-445.1,265.6-428,260-438.5,258.6z M-182.3,258.6C-187.7,267.4-169.4,257.8-182.3,258.6z M-426.2,258.7
				C-438.5,260.6-419.3,264.7-426.2,258.7z M-226.3,259.6C-234.4,267.1-215.1,261-226.3,259.6z M-97.6,259.8
				C-106.2,264-90.9,263.7-97.6,259.8z M-130,261.8C-138.1,266.8-122.5,266.2-130,261.8z M-411.2,262.2
				C-417.1,268.2-401.6,265.1-411.2,262.2z M-267.4,262.5C-276.8,268.1-259.8,268-267.4,262.5z M-82.1,263.5
				C-92,268.9-74.8,268.8-82.1,263.5z M-308.8,263.7C-314.3,270.2-302,270.9-308.8,263.7z M-465.3,264.1
				C-469.3,273.1-452.8,267.1-465.3,264.1L-465.3,264.1z M-212.1,264.4C-216.9,271.8-201.9,267.2-212.1,264.4z M-64.9,264.9
				C-70.6,271.1-58,271.4-64.9,264.9z M-161.8,265.9C-174.3,271.1-157,273.8-161.8,265.9z M-331.6,266.2
				C-341.9,273-324,272.1-331.6,266.2z M-44.5,266.8C-47.1,276.1-32.3,269.1-44.5,266.8z M-292.6,266.9
				C-299.1,272.7-285.4,275.1-292.6,266.9z M-115.8,267.4C-128.6,271.1-108.2,274.3-115.8,267.4z M-238,267.7
				C-246.1,273.4-229.3,274.4-238,267.7z M-354.9,268.7C-362.7,272.9-348.8,272.6-354.9,268.7z M-193.3,269.4
				C-202.2,275.5-184.6,275.4-193.3,269.4z M-395.9,270.9C-401.5,277.8-385.8,273.5-395.9,270.9z M-151.5,270.9
				C-160.8,276.2-142.1,275.7-151.5,270.9z M-187.6,271.2C-197.9,276.6-179.8,276.2-187.6,271.2z M-366.9,271.8
				C-376.5,276.9-357.8,275.2-366.9,271.8z M-282.5,271.9C-286.3,279.8-271.6,273.3-282.5,271.9z M-176.3,272.2
				C-184.4,277.4-168.2,276-176.3,272.2z M-426.9,272.7C-431.5,280.6-416.7,276.2-426.9,272.7z M-53.9,273.1
				C-59.1,280.8-41.9,275.4-53.9,273.1z M-377.2,273.2C-387.1,278.1-369.2,278.3-377.2,273.2z M-450.3,273.4
				C-454.2,282.2-438,275.5-450.3,273.4z M-103.5,273.7C-111.9,278.7-95.9,278.1-103.5,273.7z M-67.2,273.7
				C-76.1,278-59.6,277.3-67.2,273.7z M-208.5,274.1C-217.3,279.6-199.6,279.3-208.5,274.1z M-257.1,274.6
				C-270.6,281.4-250.3,282.7-257.1,274.6z M-220.6,274.7C-229.1,279.4-212.3,278.1-220.6,274.7z M-439.3,274.9
				C-444.1,281.3-431.4,277.8-439.3,274.9z M-120.2,274.9C-126,280.4-114.5,282.9-120.2,274.9z M-85,275.1
				C-94.9,283.3-77.2,282-85,275.1z M-323.6,275.2C-332.4,281.2-316.4,280.4-323.6,275.2z M-198.2,276.5
				C-206.4,281.2-190.9,280.8-198.2,276.5z M-183.9,277.7C-189.2,283.8-175.1,280.2-183.9,277.7z M-308.7,277.9
				C-315.3,284.5-298.5,280.4-308.7,277.9z M-269.7,278C-277,285.6-263.5,287.7-269.7,278z M-175.1,278.4
				C-184.2,284.6-166.5,284.5-175.1,278.4z M-154.9,279.4C-157.7,287.6-144.6,281.2-154.9,279.4z M-134.2,280
				C-147.3,285-123.7,284.1-134.2,280z M-440.7,281.1C-449.6,286.3-432.4,284.3-440.7,281.1z M-184.3,282.4
				C-193.8,287.6-175.2,287.5-184.3,282.4z M-204.5,282.4C-212.1,289.1-193.2,284.2-204.5,282.4z M-163.7,282.6
				C-176.3,287.9-153.1,286.2-163.7,282.6z M-359.5,283.1C-366.9,288.3-352.2,288.8-359.5,283.1z M-409.8,283.7
				C-421.7,288.9-400.2,287.8-409.8,283.7z M-178,283.8C-187.7,288.8-169.6,288.6-178,283.8z M-211.1,284.2
				C-220.5,290-202.2,289.6-211.1,284.2z M-292.9,284.4C-301.1,290.7-284.5,290.1-292.9,284.4z M-341.8,284.7
				C-349.4,289.3-334.8,289-341.8,284.7z M-394.5,285.1C-398.6,292.1-386.2,288.5-394.5,285.1z M-77.9,285.1
				C-84.8,293.3-67.4,290.5-77.9,285.1z M-43.4,285.2C-55.5,289.4-32.9,288.8-43.4,285.2z M-191.9,285.5
				C-201.3,289.7-183.5,288.7-191.9,285.5z M-119.4,285.8C-132.8,292.8-114,294.5-119.4,285.8z M-101.4,286.6
				C-111.6,291.7-92.7,291-101.4,286.6z M-368.4,286.7C-377.9,294-359.9,292.8-368.4,286.7z M-65,287.9
				C-73.1,295.5-58.2,293.8-65,287.9z M-246.1,288.2C-255.2,293.1-238,293.1-246.1,288.2z M-199.6,288.7
				C-202.7,296.4-188.5,290.1-199.6,288.7z M-466.9,289.1C-475.7,294.3-458.5,293.2-466.9,289.1z M-58,289.6
				C-67.4,294.9-49.7,294.3-58,289.6z M-183.7,289.9C-192.8,295.5-174.5,295.2-183.7,289.9z M-145.2,290.1
				C-151.4,297-133.6,291-145.2,290.1z M-70.3,291.1C-76.1,299.3-60.1,298.1-70.3,291.1z M-321.6,291.5
				C-326.5,297.9-312.5,294.4-321.6,291.5z M-376,292.5C-384.6,297.8-367.8,297.7-376,292.5z M-446,292.6
				C-453.7,297.8-438.2,297.9-446,292.6z M-431.9,292.6C-441.7,297.2-423,297-431.9,292.6z M-417.8,292.8
				C-427.9,301.5-410.2,300.1-417.8,292.8z M-354.8,292.9C-364.8,299-346.7,298.4-354.8,292.9z M-170.5,293.4
				C-178.8,298.6-162.9,298.4-170.5,293.4z M-189.4,293.7C-197.1,301.5-181.9,300.6-189.4,293.7z M-228.9,293.8
				C-241.6,300.1-221.8,301.7-228.9,293.8z M-472.9,294.1C-480.1,300-465.7,298.3-472.9,294.1z M-155.3,295.2
				C-164.3,301-146.6,300.5-155.3,295.2z M-261.6,295.6C-270.5,302.2-254.1,301-261.6,295.6z M-460.7,296.4
				C-469.1,301-453.8,300.7-460.7,296.4z M-199.9,296.4C-208.5,302.7-192.2,301.8-199.9,296.4z M-132.7,296.4
				C-141.8,302.7-125.3,301.9-132.7,296.4z M-84,296.4C-93.6,302.2-74.9,302.3-84,296.4z M-34.4,297.4
				C-44.7,302.5-29,305.7-34.4,297.4z M-69.6,297.4C-76.1,303.2-62.2,303.3-69.6,297.4z M-64.6,297.5
				C-73.7,304.9-58,303.6-64.6,297.5z M-99.3,297.7C-105.9,303.7-91.4,303.5-99.3,297.7z M-216.3,299.4
				C-222,307.8-208.5,305.9-216.3,299.4z M-367.6,300.7C-373.1,309.5-358.5,306.4-367.6,300.7z M-276.5,300.9
				C-284.8,305.8-270.8,306-276.5,300.9z M-188.3,300.9C-197.1,305.9-180.1,305.9-188.3,300.9z M-114,301.1
				C-122.4,305.6-106.7,305.4-114,301.1z M-54.7,301.5C-63,307.9-47.3,308.4-54.7,301.5z M-390.8,301.7
				C-397.6,308.7-384.1,307.6-390.8,301.7z M-177.2,302.1C-184.6,310.5-171.3,308.7-177.2,302.1z M-78.1,302.2
				C-82.6,309.2-68.8,305.4-78.1,302.2z M-124.3,302.5C-132,307.9-116.2,306.8-124.3,302.5z M-290.6,303.4
				C-297.6,309.7-282.8,311.3-290.6,303.4z M-200.4,304.1C-204.3,313.4-184.3,305.5-200.4,304.1z M-351.9,304.2
				C-362.7,309.8-342.3,308-351.9,304.2z M-328,304.9C-336.9,310-319.3,310.4-328,304.9z M-425.6,305.3
				C-434.6,310.5-417.1,309.3-425.6,305.3z M-164.1,306.5C-172.3,314.3-157.7,313.1-164.1,306.5z M-302.2,306.6
				C-310.8,311.8-293.6,310.1-302.2,306.6z M-459.4,306.7C-468.6,312.2-448.1,309.3-459.4,306.7z M-146.3,306.8
				C-153.4,314.1-134.4,308-146.3,306.8z M-449.8,306.9C-453.1,316.3-437.5,308.7-449.8,306.9z M-131.7,307.3
				C-140.1,312.4-124.1,312.1-131.7,307.3z M-405,307.9C-410.2,315.2-393.5,310.1-405,307.9z M-242,309.2
				C-250.6,314.2-234.2,313.9-242,309.2z M-438.8,309.7C-447.6,316.6-431.6,315.4-438.8,309.7z M-87.8,309.8
				C-95.9,314.1-80,314.1-87.8,309.8z M-42.2,310.8C-50.3,319.1-36.2,318.3-42.2,310.8z M-251.6,311.4
				C-259.5,316.4-243.8,315-251.6,311.4z M-384.6,311.8C-393.8,316.1-376.5,316.1-384.6,311.8z M-210.8,312.3
				C-217,318.1-201.8,313.7-210.8,312.3z M-223.6,312.8C-234.2,317.5-214.8,317.1-223.6,312.8z M-67.6,312.8
				C-75.3,317.7-60.8,317-67.6,312.8z M-136.9,314.5C-147,320.8-124.8,318.5-136.9,314.5z M-30,315C-37.7,319.6-22.6,319.4-30,315z
				 M-376.9,315.4C-383.9,320.8-369.7,321.7-376.9,315.4z M-286.5,315.8C-292,322.2-277.6,318.6-286.5,315.8z M-120.7,316.5
				C-129.1,321.3-112.5,320.5-120.7,316.5z M-354.1,316.7C-362.8,321.6-345.4,321.1-354.1,316.7z M-179.6,317
				C-188.3,321.8-171.8,321.5-179.6,317z M-264.2,317.1C-273.1,323.4-252.3,318.2-264.2,317.1z M-151.2,317.5
				C-154.4,327.7-137.6,319.4-151.2,317.5z M-98.1,317.5C-105.8,322.5-90.4,323-98.1,317.5z M-423.9,317.9
				C-433,322.2-415.8,321.3-423.9,317.9z M-316.2,320.9C-327.4,326-307.9,325.1-316.2,320.9z M-400.2,321.8
				C-409.2,327.3-391.9,327.2-400.2,321.8z M-84.9,322.5C-94,328.3-75.4,326.5-84.9,322.5z M-442,322.6
				C-447.7,331.4-430.6,327.2-442,322.6z M-241.4,323.4C-251.9,329.2-236.1,331.8-241.4,323.4z M-342,323.6
				C-351.6,328.5-333,326.8-342,323.6z M-452.8,324.2C-461.9,329.8-444,328.4-452.8,324.2z M-295.4,324.2
				C-304.3,330-286.9,329.6-295.4,324.2z M-26,324.4C-30.9,333.1-20.9,331.1-26,324.4z M-273,324.6
				C-281.7,330.4-264,329.9-273,324.6z M-470.5,324.9C-481.3,330.4-462,329.6-470.5,324.9z M-59.9,324.9
				C-65.1,332.9-49.5,329.2-59.9,324.9z M-164.4,325.8C-171.7,333.6-157.9,332.2-164.4,325.8z M-207.2,326
				C-214.9,332.6-200.9,333.2-207.2,326z M-102.9,326.5C-110.6,332-95.5,331.4-102.9,326.5z M-375.2,327.1
				C-382.8,334-362.8,328.8-375.2,327.1z M-258.4,327.8C-267.9,333.2-252.5,334.9-258.4,327.8z M-146,328.8
				C-158.5,330.5-139.8,335.3-146,328.8z M-171.3,329.2C-184,334.5-160.1,332.7-171.3,329.2z M-414.4,329.5
				C-426.3,334.3-404.9,333.5-414.4,329.5z M-191.9,329.8C-198.1,335.9-185.8,337.2-191.9,329.8z M-117,329.9
				C-127,335.5-110.4,335.4-117,329.9z M-438.4,330.2C-451.9,336.1-433.3,339.6-438.4,330.2z M-288.1,330.9
				C-297.2,336.5-279.5,336.1-288.1,330.9z M-467.6,331.2C-470.3,339.8-456.1,333.4-467.6,331.2z M-39.3,331.3
				C-48.7,337.4-30,336.8-39.3,331.3z M-85.6,331.4C-90.7,338.6-75,334-85.6,331.4z M-23.6,331.9l0.1,1L-23.6,331.9z M-140.1,332.5
				C-145.9,339-134,340.1-140.1,332.5z M-157.2,332.6C-163.4,339.1-147.2,335.6-157.2,332.6z M-460.5,334
				C-468.4,340.5-452.6,340.7-460.5,334z M-405.6,334.5C-412.1,341.3-394.8,336.7-405.6,334.5z M-294.9,335.3
				C-306,340.5-285,338.7-294.9,335.3z M-177.9,335.6C-186.1,340.7-170.1,340.2-177.9,335.6z M-212.2,335.7
				C-223.5,340.5-203,339.9-212.2,335.7z M-390.9,335.8C-402,341.7-377.9,338.8-390.9,335.8z M-227.8,335.9
				C-233.8,344.6-214.7,337.1-227.8,335.9z M-375.4,336.2C-384.4,344.4-369.3,343.9-375.4,336.2z M-331.3,336.4
				C-334.3,346.6-316.6,338.9-331.3,336.4z M-119.6,336.5C-128.4,341.4-111.2,340.9-119.6,336.5z M-454.4,336.5
				C-460.2,344-443.7,338.6-454.4,336.5z M-446.6,336.9C-453.2,342.7-438.7,342.2-446.6,336.9z M-309.1,337.2
				C-313.9,345.2-298.5,340-309.1,337.2z M-163.1,337.2C-171.8,342.9-155.2,342.1-163.1,337.2z M-265.6,337.5
				C-274.4,345.3-257.3,344.1-265.6,337.5z M-468.6,337.7C-477.8,343.5-459.2,343.9-468.6,337.7z M-397.1,337.8
				C-409.2,343-386.9,341.1-397.1,337.8z M-147.4,338C-156.7,343.9-137.8,343.9-147.4,338z M-250.4,338.4
				C-257.7,346.6-239.3,343.3-250.4,338.4z M-98.3,338.8C-107.3,344.6-90,344.4-98.3,338.8z M-347.2,339
				C-355.5,343.7-340.2,343.4-347.2,339z M-170.6,339.1C-180.2,344.3-162.8,343.4-170.6,339.1z M-430.6,339.8
				C-439.5,345.2-421.5,343.1-430.6,339.8z M-196.8,340.4C-203.8,347.9-187.5,344.9-196.8,340.4z M-212.4,340.7
				C-221.7,346.5-203.6,346-212.4,340.7z M-203.2,341.9C-213,349.3-194.7,348.2-203.2,341.9z M-388.2,342.4
				C-393.4,352.9-374.1,342.6-388.2,342.4z M-281.2,342.7C-287.8,349-274.5,350.4-281.2,342.7z M-295.7,342.8
				C-303.1,349.6-289.3,348.5-295.7,342.8z M-25.4,343.2C-32.3,350-13.3,345.6-25.4,343.2z M-81.6,343.3
				C-88.6,349.2-74.4,350.1-81.6,343.3z M-412.1,344.2C-421.8,349.4-402.3,347-412.1,344.2z M-163.8,344.4
				C-176.6,349.7-152.8,348.7-163.8,344.4z M-459,344.8C-463.9,353.4-446.9,347.4-459,344.8z M-370.3,345.4
				C-381,348.6-365.3,351.9-370.3,345.4z M-52.8,345.5C-63.5,350.7-42.1,348.8-52.8,345.5z M-149.2,346.5
				C-155.1,354.3-139.2,352.2-149.2,346.5z M-122.6,347C-130.9,351.6-114.9,351.4-122.6,347z M-173.5,347.4
				C-178.2,355.3-162.7,349.8-173.5,347.4z M-309.3,347.6C-320,352.2-303.2,355.8-309.3,347.6z M-105.7,347.9
				C-115.3,353.7-96.6,353.2-105.7,347.9z M-195.5,348.6C-202.7,356.2-185.5,353.1-195.5,348.6z M-221.5,349.1
				C-227.5,355-212.6,351.2-221.5,349.1z M-157.4,349.7C-163.5,356.4-146.3,350.7-157.4,349.7z M-320,350.1
				C-329,357.5-311.8,356.1-320,350.1z M-395.1,350.6C-401.9,359.2-385,356.1-395.1,350.6z M-355.5,350.7
				C-362.2,359.9-343.4,357.1-355.5,350.7z M-64.4,351.2C-75,356.3-54.7,354.2-64.4,351.2z M-328.9,352.2
				C-341.6,357-323.6,359.6-328.9,352.2z M-298.7,353.2C-309.5,358.7-290.6,358-298.7,353.2z M-439.7,353.3
				C-445.1,360.5-430.1,356.4-439.7,353.3z M-47.5,353.4C-53.7,360.2-36.5,356.4-47.5,353.4z M-207.9,353.4
				C-213.4,360.6-197.9,354.7-207.9,353.4z M-466.9,354.8C-475.8,357.7-462.1,359.8-466.9,354.8z M-411.8,355
				C-418.6,361.4-406.7,363.7-411.8,355z M-377.3,355.2C-386.6,363.6-370.9,362.5-377.3,355.2z M-340.3,355.3
				C-346.6,361.4-330.6,356.8-340.3,355.3z M-81.2,355.7C-90.5,361.3-76.7,363.4-81.2,355.7z M-268.5,355.8
				C-276.8,360.8-260.6,360.7-268.5,355.8z M-122.5,357.2C-131.2,362.7-111,358.6-122.5,357.2z M-137.7,359
				C-146.3,364.4-129.3,364.2-137.7,359z M-403.8,359.8C-411.9,365.1-395.1,365.4-403.8,359.8z M-181.8,359.9
				C-190,365.9-173.3,367.3-181.8,359.9z M-284.3,360C-293.1,366.5-276.6,365.8-284.3,360z M-259.9,360
				C-268.4,364.7-251.6,364.6-259.9,360z M-397.1,360.1C-401.6,368.2-387,365.5-397.1,360.1z M-236.5,360.5
				C-244.3,366.6-224.9,362-236.5,360.5z M-344.3,360.6C-355.4,366.1-334,363.8-344.3,360.6z M-213.1,361
				C-223.4,366.3-204.2,365.9-213.1,361z M-110,361.1C-116.5,367.8-101.3,367.7-110,361.1z M-100.4,361.6
				C-105.5,369.1-91.3,364.7-100.4,361.6z M-33.7,361.9C-43.1,367.8-24,365.7-33.7,361.9z M-162.3,363.1
				C-171.5,368.3-153.5,367.7-162.3,363.1z M-147.5,363.3C-156.5,369.4-135,364.3-147.5,363.3z M-316.3,363.7
				C-323.2,369.5-309.5,370.7-316.3,363.7z M-451.3,363.9C-461.6,370.7-442.8,369.7-451.3,363.9z M-20.8,364.9
				C-28.9,366.7-14.7,371.8-20.8,364.9z M-422.9,365.4C-428.9,371.9-415.3,371.7-422.9,365.4z M-366.8,365.5
				C-375.3,370.7-358.7,370.3-366.8,365.5z M-205.3,366.3C-216.9,371.7-194.5,369.9-205.3,366.3z M-192,366.5
				C-202.8,371.5-183,370.8-192,366.5z M-250.1,367.1C-256,375.2-238.8,368.5-250.1,367.1z M-328.3,367.8
				C-335,373.5-318.8,369.4-328.3,367.8z M-406.5,369C-415.7,374.7-397.1,374.7-406.5,369z M-304.8,369.3
				C-309.5,376.2-294.8,372.1-304.8,369.3z M-28.7,370.4C-34.3,376.8-22.4,377.6-28.7,370.4z M-119.7,371.1
				C-128.9,375.8-111.5,376.1-119.7,371.1z M-74.1,372.3C-78.9,381.3-62.8,376.5-74.1,372.3z M-59.8,372.4
				C-65.8,380.7-49.2,377.7-59.8,372.4z M-168.6,372.4C-178,376.7-162.6,379.6-168.6,372.4z M-136,372.5
				C-144.4,377.3-128.4,377.3-136,372.5z M-181.7,372.7C-186.7,380.6-170.3,375.7-181.7,372.7z M-344.1,373.4
				C-349.4,383.7-329.6,373.7-344.1,373.4z M-387.6,374.3C-394.9,380.3-377.2,375.6-387.6,374.3z M-289.2,374.4
				C-298.7,379.2-281.4,378.6-289.2,374.4z M-153,374.9C-162.1,381.1-144.2,380.5-153,374.9z M-113.1,375.1
				C-118,382.9-102,378-113.1,375.1z M-84.6,375.1C-94.9,380.2-76.3,379.7-84.6,375.1z M-94.5,376.1
				C-105.2,382-82.5,379.3-94.5,376.1z M-255.7,376.7C-264.4,383-248.2,382-255.7,376.7z M-431.3,376.7
				C-434.4,386-417.8,378.8-431.3,376.7z M-275.2,376.8C-282.9,381.8-267.1,382.2-275.2,376.8z M-102,377.6
				C-111.5,382.1-94.1,381.9-102,377.6z M-268,378C-274.8,384.5-258,380.5-268,378z M-45.8,378.2C-50.2,385.5-36.1,381.4-45.8,378.2
				z M-201.7,378.9C-210.2,384.3-193.1,384.2-201.7,378.9z M-405.5,379.4C-416.1,384.4-398,384.5-405.5,379.4z M-185.9,379.6
				C-194.1,384.4-177.6,384.2-185.9,379.6z M-175,380.1C-186.1,385.6-163.7,383.3-175,380.1z M-26.7,381.5
				C-35.7,386.9-18.1,387.1-26.7,381.5z M-454.8,381.7C-463.3,386.5-446.5,386.3-454.8,381.7z M-99.3,381.8
				C-104,390-88.1,385.4-99.3,381.8z M-220.8,382C-227.9,388.9-208.2,383.8-220.8,382z M-328.5,383.3
				C-336.8,387.6-320.6,387.6-328.5,383.3z M-283.4,383.3C-290.6,389.9-275,391.7-283.4,383.3z M-297.1,384.1
				C-308.2,389.1-284,387.9-297.1,384.1z M-361.1,384.5C-367.3,391.5-352.9,392.1-361.1,384.5z M-33,386.2
				C-43.4,391.3-23.6,389.5-33,386.2z M-140.6,387.4C-148,395-130.4,391.7-140.6,387.4z M-416.9,387.5
				C-426.4,393.4-407.6,393.7-416.9,387.5z M-111.9,387.8C-119.1,393.9-105.8,394.7-111.9,387.8z M-170.4,389
				C-178,395-163,395.9-170.4,389z M-151.8,389.1C-160,394.7-144.1,394.7-151.8,389.1z M-126,389.5
				C-135.8,396.2-117.8,395.1-126,389.5z M-397.9,389.5C-404.3,395.3-389.8,394.6-397.9,389.5z M-102.3,390
				C-111.3,397.7-94.4,396.5-102.3,390z M-382.8,390.5C-391.3,396.7-375.5,395.8-382.8,390.5z M-308.8,391.8
				C-314.7,401.4-297.2,399.5-308.8,391.8z M-434.2,391.9C-444.9,397.9-425.9,397.2-434.2,391.9z M-90.3,391.9
				C-98,398.3-82.1,399.2-90.3,391.9z M-452.7,393.2C-461,401.5-445,399-452.7,393.2z M-21,393.8C-24.8,394.8-19.8,401.9-21,393.8z
				 M-373.8,393.9C-384.1,399.8-360,396.9-373.8,393.9z M-72.2,394.5C-80.3,399.3-63.9,399.5-72.2,394.5z M-40.2,394.5
				C-48.7,399.5-31.4,399.3-40.2,394.5z M-28.9,394.7C-39.4,400.6-20.6,400.1-28.9,394.7z M-403.4,395.2
				C-411.6,401.3-396.4,400.8-403.4,395.2z M-123.4,395.7C-134.8,401.8-115.2,401.2-123.4,395.7z M-258.8,396
				C-264.8,403.6-247.4,398.1-258.8,396z M-346.7,396.4C-353.2,403.3-337.5,400.8-346.7,396.4z M-268.7,396.6
				C-275.4,404.4-262.8,403.1-268.7,396.6z M-183.1,397C-190.9,402.4-175.1,401.2-183.1,397z M-241.4,397.3
				C-251.6,402-233.2,401.4-241.4,397.3z M-116.9,398.2C-126.9,402-112.7,405.6-116.9,398.2z M-283.8,398.3
				C-296.9,402.8-273.4,401.8-283.8,398.3z M-358.2,398.9C-366.7,405.2-349.5,406.2-358.2,398.9z M-60.6,399.4
				C-73.1,403.9-54.4,407.7-60.6,399.4z M-159.1,399.6C-164.6,407-149.3,402.3-159.1,399.6z M-131.2,399.7
				C-142,407.8-123.6,406.2-131.2,399.7z M-51.5,399.8C-59.2,406.3-44.5,407.1-51.5,399.8z M-170.2,399.9
				C-175.8,406-161.2,402.3-170.2,399.9z M-381.4,400.7C-384.8,408.5-369.6,402.5-381.4,400.7z M-215.5,401.1
				C-224.4,410-208.9,408.5-215.5,401.1z M-293.2,401.9C-302.6,407.4-283.8,407.7-293.2,401.9z M-276.4,402
				C-285.5,407.9-267.3,407.3-276.4,402z M-74.7,402.1C-84.8,407.2-65.3,407.1-74.7,402.1z M-389.8,402.2
				C-400.6,406.9-380.7,406.7-389.8,402.2z M-412.3,402.7C-417.6,413.2-397.3,402.5-412.3,402.7z M-367.1,403.2
				C-372.6,411.6-357.6,409.8-367.1,403.2z M-107.4,403.3C-112.4,409.7-99.3,406-107.4,403.3z M-90.1,403.6
				C-98.1,410.6-78.4,404.6-90.1,403.6z M-146.1,404.2C-153.6,408.7-139.1,408.5-146.1,404.2z M-251.6,405.3
				C-261.9,409.8-244.7,409.3-251.6,405.3z M-61.9,406C-72.1,413-54.9,413.3-61.9,406z M-281.5,406.2
				C-289.8,411.5-273.1,412-281.5,406.2z M-319,406.4C-328.1,411.5-310.3,411.2-319,406.4z M-343.5,406.5
				C-351.5,412.1-332.7,407.9-343.5,406.5z M-26.5,406.6C-32.3,410.5-25.8,415.5-26.5,406.6z M-47.7,407.4
				C-52.1,415.7-36.5,410.1-47.7,407.4z M-261.1,407.8C-269.1,415.8-255.7,414.8-261.1,407.8z M-55.1,407.9
				C-68.1,412.9-50.3,416.5-55.1,407.9z M-188.8,408.1C-197.8,414-180.6,413.4-188.8,408.1z M-438.5,408.2
				C-446.7,414-430.6,413.6-438.5,408.2z M-423.3,408.2C-430.5,414.6-416.6,415.5-423.3,408.2z M-76,408.6
				C-85.4,414.6-66.3,412.6-76,408.6z M-68.1,409.6C-78,416.5-59.5,415.6-68.1,409.6z M-382.7,410.1
				C-388.7,416.6-376.4,418.7-382.7,410.1z M-373.2,410.2C-379.1,416.6-366.7,417.2-373.2,410.2z M-401.6,411.2
				C-409.9,417-392.7,417.9-401.6,411.2z M-134.7,411.6C-144.9,416.9-125.4,415.1-134.7,411.6z M-287.7,412.1
				C-295.8,417.2-279.8,417-287.7,412.1z M-119.5,413C-132,418.6-108.8,416.8-119.5,413z M-163.4,413.1
				C-173,418.7-154.2,417-163.4,413.1z M-273.9,413.4C-284.4,418-267.7,421.3-273.9,413.4z M-171,413.9
				C-181.6,418.4-161.7,418.4-171,413.9z M-109.8,414.8C-117.5,423.1-98.5,419.7-109.8,414.8z M-355.7,414.9
				C-363.7,421.8-349.3,422-355.7,414.9z M-155.7,415.7C-166.3,420.6-146.5,419.5-155.7,415.7z M-31.4,416.9
				C-36.8,416.7-31.1,423.9-31.4,416.9z M-41.5,417.6C-51.9,422.9-31.2,421-41.5,417.6z M-83.9,418.3
				C-92.3,422.9-76.6,422.7-83.9,418.3z M-50.7,418.6C-58.3,425.5-38.8,420.2-50.7,418.6z M-334.5,419.2
				C-343.9,426.5-320.9,420.3-334.5,419.2z M-391,419.6C-397.3,426.8-384.7,429-391,419.6z M-270.1,419.7
				C-278.2,425-261.7,423.4-270.1,419.7z M-241.7,420C-251.4,428.4-233.6,426.3-241.7,420z M-223.2,420.4
				C-227.9,428.8-213,423.9-223.2,420.4z M-256.9,420.6C-263,426.6-249.7,426.4-256.9,420.6z M-204.3,420.7
				C-210.4,426.5-196.5,426.1-204.3,420.7z M-145.5,420.7C-157.4,425-139,428.4-145.5,420.7z M-430.2,421.2
				C-440.3,425.6-421.5,424.5-430.2,421.2z M-191.4,421.3C-200.6,428-183.3,426.3-191.4,421.3z M-100.8,421.4
				C-110.1,427.4-92.3,426.8-100.8,421.4z M-373.5,421.5C-382.5,426.6-362.5,424.5-373.5,421.5z M-296.9,421.8
				C-310.8,426.7-289.9,429.6-296.9,421.8z M-280.1,424.1C-286.6,430.3-274.8,431.7-280.1,424.1z M-118.7,424.5
				C-128.2,430.4-109.7,429.9-118.7,424.5z M-311.6,424.9C-319.6,429.4-303.9,429.4-311.6,424.9z M-162.4,425
				C-170.1,430.3-154.6,429.5-162.4,425z M-132.3,425.4C-140.2,430.4-124.7,430.2-132.3,425.4z M-327.4,427.5
				C-332.2,436.2-316.1,430.7-327.4,427.5z M-419.5,428.4C-427.1,433.4-411.7,432.5-419.5,428.4z M-63.6,429.5
				C-70.8,435-52.3,431-63.6,429.5z M-262.5,429.6C-271.5,435.2-253,435.2-262.5,429.6z M-378.7,430.4
				C-390,435.3-368.8,433.9-378.7,430.4z M-93.4,430.5C-100.9,434.9-85.8,435.2-93.4,430.5z M-77.8,430.9
				C-84,437.7-67.5,432.7-77.8,430.9z M-189.2,431.2C-197,437.5-182.6,437.9-189.2,431.2z M-364.3,432.4
				C-374.5,438.1-353.9,435.8-364.3,432.4z M-275.2,432.7C-283.8,438.1-266.7,438.2-275.2,432.7z M-251.7,433.5
				C-260.2,442-245.6,440.8-251.7,433.5z M-206.6,433.6C-216.3,437.6-202.4,441.3-206.6,433.6z M-166.3,433.9
				C-174.6,439.1-158.5,438.6-166.3,433.9z M-136.9,434.1C-144.9,439.9-129.2,438.9-136.9,434.1z M-223.7,434.4
				C-228.2,443.8-210.1,434.4-223.7,434.4z M-338.1,434.6C-351.1,440.2-328,439.3-338.1,434.6z M-235.9,434.9
				C-245.2,442.8-221.7,435.9-235.9,434.9z M-322.2,435.4C-329.4,440.9-314.2,439.7-322.2,435.4z M-151.7,435.5
				C-155.6,445.3-139.3,435.2-151.7,435.5z M-400.7,436.9C-409.4,441.4-392.7,441.3-400.7,436.9z M-107.3,437.3
				C-114.2,446.1-96.6,443-107.3,437.3z M-124.9,439.2C-131.4,449-110.5,439.3-124.9,439.2z M-191.4,439.4
				C-201,445.7-183.2,445.1-191.4,439.4z M-386.3,439.6C-397.6,444.7-375,442.5-386.3,439.6z M-270.4,440.1
				C-278.4,444.9-262.4,444.7-270.4,440.1z M-356.7,440.9C-369.7,443.8-348.7,446.1-356.7,440.9z M-173.4,441.9
				C-181.9,446-167,445.9-173.4,441.9z M-375.1,442.8C-383.2,447.7-367.3,447.2-375.1,442.8z M-308.2,442.8
				C-318.3,448-298.2,446.4-308.2,442.8z M-83.7,443.1C-90.9,449-75.4,448.4-83.7,443.1z M-216.7,444.5
				C-222.4,450.3-208,446.7-216.7,444.5z M-391.8,444.8C-401.6,450.1-383.4,449.8-391.8,444.8z M-348.1,445.2
				C-357.1,450.3-339.2,450.7-348.1,445.2z M-69.2,445.3C-76.8,449.9-61.6,450-69.2,445.3z M-222.1,446
				C-232.6,449.8-217,453.3-222.1,446z M-359.6,446.9C-369.3,452.3-348.8,450.1-359.6,446.9z M-231.1,447
				C-239.5,453.5-224,452.8-231.1,447z M-408.7,447.3C-403.9,456.1-404.2,446.4-408.7,447.3z M-195.4,447.8
				C-200.4,455.1-186.3,450.9-195.4,447.8z M-285.1,448.7C-288.1,458.2-272.8,448.8-285.1,448.7z M-117.9,448.7
				C-122.8,456.6-107.7,451.6-117.9,448.7z M-296,448.9C-301.4,456.8-285.7,453.5-296,448.9z M-381.4,449
				C-391.1,453.6-375.9,456.5-381.4,449z M-179.6,450C-188.3,455.3-170.2,453.3-179.6,450z M-204.6,450.1
				C-212.5,457.8-199.4,456.8-204.6,450.1z M-213,450.7C-228.4,456.9-203.1,457.3-213,450.7z M-367,451.1
				C-375.4,457-359.2,456-367,451.1z M-156.2,452.4C-165.4,458-147.4,457.9-156.2,452.4z M-140,452.8
				C-145.9,460.7-128.2,455.5-140,452.8z M-96.5,454C-103.8,459-88.9,458.4-96.5,454z M-309.7,454.9
				C-320.7,458-304.3,461.3-309.7,454.9z M-254.6,455C-261,462.6-241.8,456.8-254.6,455z M-351.6,455.9
				C-360.6,461.6-342.6,461.1-351.6,455.9z M-76.3,456.1C-86.7,463.9-68.7,461.2-76.3,456.1z M-168.1,456.3
				C-176.8,461.5-158.3,459.5-168.1,456.3z M-288.1,456.5C-296.6,462.2-280.9,461.9-288.1,456.5z M-228.7,456.8
				C-237.7,464.1-221.7,463-228.7,456.8z M-219.1,457.7C-227.2,462.6-211.9,462.1-219.1,457.7z M-270.8,457.9
				C-276.1,464.3-261.1,460.6-270.8,457.9z M-299.7,458.3C-304.1,465.8-289.4,461.8-299.7,458.3z M-120,458.7
				C-129.2,463.6-112.9,463.6-120,458.7z M-329.8,460.6C-334.7,468.1-320.6,463.8-329.8,460.6z M-185.6,460.9
				C-188.8,470.8-172.3,462.5-185.6,460.9z M-153.7,461C-159.5,467.2-147,469.6-153.7,461z M-242.9,461.6
				C-248.6,469.6-233.3,465.2-242.9,461.6z M-373.3,462C-383.2,466.6-364.5,466.2-373.3,462z M-358.2,462.7
				C-364.1,469.2-349,465.4-358.2,462.7z M-201.1,463C-208.5,468.2-193.4,468.9-201.1,463z M-109.7,463.9
				C-117.1,469.6-101.6,470.6-109.7,463.9z M-86.6,465.9C-94.6,470.7-78.8,470.5-86.6,465.9z M-133,466
				C-140.6,473.2-127.5,472.3-133,466z M-343.3,466.2C-354.7,471.1-335.2,470.5-343.3,466.2z M-227.7,466.3
				C-235.3,471.5-219.9,472.1-227.7,466.3z M-169.8,467.2C-181.3,472.1-158,469.9-169.8,467.2z M-274.9,467.8
				C-282,473.1-267.5,473.6-274.9,467.8z M-145.6,468C-153.4,472.7-137.9,472.5-145.6,468z M-151.9,468
				C-163.6,472.9-147.7,477.5-151.9,468z M-96.4,469.2C-103.8,474.5-88.3,473.2-96.4,469.2z M-296.6,471
				C-301.6,478-286.4,474-296.6,471z M-282.6,471.3C-291,476-275.5,475.8-282.6,471.3z M-358.8,471.5
				C-367.3,476.9-349.9,475.2-358.8,471.5z M-265.5,471.7C-274.6,476.3-258.2,476.1-265.5,471.7z M-204.5,472.5
				C-220,477.1-197.3,480.1-204.5,472.5z M-122.3,473.2C-134,475.1-115.9,479.2-122.3,473.2z M-311.3,473.5
				C-320.4,481.3-304.8,479.5-311.3,473.5z M-100.7,474.5C-110.6,478.7-92.9,478.2-100.7,474.5z M-162.2,474.8
				C-168.9,481.2-155.6,482.4-162.2,474.8z M-184.3,475.7C-194.6,480.4-175.1,480.1-184.3,475.7z M-251.1,475.8
				C-258.9,481-241.9,479.2-251.1,475.8z M-233.2,476C-238.5,482.5-224.3,479.1-233.2,476z M-215.3,476.6
				C-226.2,481-209,484.3-215.3,476.6z M-152.5,476.7C-161.6,482.3-144.2,481.7-152.5,476.7z M-113.5,477
				C-124,482.3-105,481.9-113.5,477z M-139.3,477.9C-152.6,483-127.8,481.6-139.3,477.9z M-336.1,478.3
				C-342.6,486.2-326.4,482-336.1,478.3z M-127,481.5C-134.2,486.1-119.8,485.5-127,481.5z M-224.1,482.2
				C-231.2,491-213.3,487.9-224.1,482.2z M-151.9,483.6C-162.5,488.1-143.4,487.2-151.9,483.6z M-100.6,484.1
				C-102.4,485.3-101.7,484.8-100.6,484.1z M-202.3,484.9C-210.9,490.1-193.4,490.6-202.3,484.9z M-192.3,485
				C-201,489.3-185.9,489.2-192.3,485z M-171.6,485.4C-180.1,490.6-162.6,488.7-171.6,485.4z M-135.1,485.4
				C-144.6,490.5-128.7,490.6-135.1,485.4z M-324,486.2C-335.2,491.1-312.9,489.6-324,486.2z M-272.8,486.5
				C-285.4,492.5-265.8,493.3-272.8,486.5z M-296.2,486.8C-302.1,494.3-286.1,491.4-296.2,486.8z M-106.6,486.8
				C-117.3,490.1-102.7,489.3-106.6,486.8z M-224.4,488.4C-233.3,494.2-216.3,493.3-224.4,488.4z M-218,488.9
				C-228.7,494.1-208.4,492.8-218,488.9z M-237.5,490.2C-247.6,497.9-230,496.3-237.5,490.2z M-120.8,491.1
				C-130,495.9-112.5,494.8-120.8,491.1z M-157.9,493.3C-163,502.3-144.5,492.6-157.9,493.3z M-310.8,493.7
				C-318.9,500.2-303.3,501.2-310.8,493.7z M-207.2,493.8C-217.1,499.5-200.1,499.5-207.2,493.8z M-258.2,495.3
				C-266.4,500.6-250.1,500.9-258.2,495.3z M-188.8,495.4C-197.5,501-180.6,500.4-188.8,495.4z M-127,496.5
				C-140.9,501.2-118.4,498-127,496.5z M-223.4,496.8C-233.3,501.2-215.7,500.4-223.4,496.8z M-138,497
				C-147.1,503-128.8,503.5-138,497z M-181,500.1C-190.2,505.1-172.9,504.5-181,500.1z M-214.9,503.3
				C-221,509.5-207.8,509.3-214.9,503.3z M-161.6,503.3C-171.8,507.5-152.7,507.7-161.6,503.3z M-173.8,504.5
				C-179.3,512.7-165.2,511.2-173.8,504.5z M-196,505.1C-209.5,509.3-188.8,511.7-196,505.1z M-188.3,505.6
				C-198.2,510.9-179.6,510.5-188.3,505.6z M-238,511.8C-243.5,513-231.5,513.1-238,511.8z"/>
			<path id="path3015" class="st11" d="M-27.9,373.9c-1.4,0-2.8,0.4-4.1,1.1c-11.9,5-19.1,18.9-18.2,31.8c0,6.6,4.8,13.8,11.6,13.7
				c6.7-0.5,11.9-7.5,15.1-12.8c5.2-7.5,5-17.1,4-26.2C-19.7,376.6-23.8,373.8-27.9,373.9z"/>
			
				<linearGradient id="path3856_1_" gradientUnits="userSpaceOnUse" x1="-521.1791" y1="230.5693" x2="-514.8522" y2="156.2693" gradientTransform="matrix(0.9812 0 0 -1.0178 473.9003 591.9886)">
				<stop  offset="0" style="stop-color:#F2C26D"/>
				<stop  offset="1" style="stop-color:#7F6C43"/>
			</linearGradient>
			<path id="path3856" class="st12" d="M-27.3,375.2c-0.9,0-1.8,0.1-2.6,0.4c-13,4.3-21.1,18.7-19.8,32c0.1,6.1,4.9,12.5,11.4,12.4
				c6.9-0.7,11.6-6.8,15-12.3c5.4-7.6,4.9-17.3,4-26.1C-19.8,377.7-23.5,375.1-27.3,375.2z"/>
			
				<radialGradient id="path3810_1_" cx="-345.647" cy="89.8095" r="13.558" gradientTransform="matrix(0.2943 8.017000e-02 0.144 -0.5885 55.1118 479.8555)" gradientUnits="userSpaceOnUse">
				<stop  offset="0" style="stop-color:#F2C26D"/>
				<stop  offset="1" style="stop-color:#7F6C43"/>
			</radialGradient>
			<path id="path3810" class="st13" d="M-27.1,378.3c-0.2,0-0.5,0-0.7,0c-6.5,0.5-11.5,7.1-14.3,13.1c-3.4,6.4-6,14.9-2.2,21.8
				c4.1,4.6,10.4,0.8,13.5-3.2c4.4-5.3,7-12.2,8.3-19.1c0.1-7.3-9.5-10.9-13.6-5.3c-4.6,5.7-9.1,14.1-6,21.8
				c2.8,6.2,10.2,2.1,12.6-2.4c3.1-4.6,6-13.9,0.1-17.2c-8.3-2.9-14.8,11.3-8,17c6.2,4.2,12.9-8.4,6.3-11.9
				c-6.5-4.5-9.8,11.8-2.3,7.8c-1.7-1-5.5-2.2-2.5-5.8c5.6-6.5,9.9,5.8,3.7,8.6c-6.1,4.5-9.5-6.2-5.6-10.6
				c3.1-7.4,13.6-4.2,10.8,4.2c-1.1,6.5-6.8,16-13.6,10.7c-3.8-4.1-1.1-10.7,0.7-15.2c2.3-4.1,5.7-9.3,10.6-8.7
				c7.2,1.4,6.9,10.4,3.7,15.7c-2.5,6.6-7.1,13.6-14.1,14.6c-7.2-0.9-6.8-11.4-4.2-16.8c2.7-7.4,7-15.3,14.1-18.1
				c7.8-1.7,11.1,8.6,8.1,15.1c-2.3,9.6-7.6,18.8-15.9,23.2c-0.1,2.6,6.1-3.3,7.5-4.9c6.7-7.5,10.8-18.5,9.5-29
				c-0.5-2.4-2.1-4.6-4.4-5.3C-25.7,378.4-26.4,378.3-27.1,378.3z"/>
			<path id="path3917" class="st14" d="M-39.4,283.6c-31.6,1.4-35.4,64-28,71.7c10.2,9.2,32-5.2,35-19.3
				C-31.1,329.8-37.8,301.6-39.4,283.6z"/>
			<path id="path3960" class="st15" d="M-60.8,305c-5.7,7.2-9.1,16.4-9.1,26.3c0,16.5,9.4,30.9,23.2,37.9
				c-1.7-16.9-1.5-18.6-3.3-23.4c-1.5-4.2-5.8-14.6-6.5-26.5C-57.3,314.5-58.8,309.7-60.8,305z"/>
		</g>
	</g>
</g>
<g id="Layer_2">
	<g>
		<path class="st16" d="M109.1,118.2c4.7,5.5,27.4,33,27.4,33"/>
		<line class="st16" x1="101.5" y1="147.6" x2="145.1" y2="122.2"/>
	</g>
	<g>
		<path class="st16" d="M355.2,178c4.5,5.4,25.9,32.4,25.9,32.4"/>
		<line class="st16" x1="348.6" y1="210.5" x2="388.6" y2="178.1"/>
	</g>
	<g>
		<g>
			<path class="st17" d="M43,242.8c1.5,6,4.9,12.2,10.1,18.2"/>
			<path class="st18" d="M82.2,285c63.3,40,188.2,71.3,273.9,58.5"/>
			<path class="st17" d="M374.8,339.9c7.1-1.7,13.7-3.9,20-6.4"/>
		</g>
	</g>
</g>
<g id="Layer_3">
	<ellipse class="st19" cx="123.6" cy="135.6" rx="3" ry="3"/>
	<ellipse class="st19" cx="368.6" cy="194.4" rx="3" ry="3"/>
</g>
</svg>
