<?xml version="1.0" encoding="utf-8"?>
<!-- Generator: Adobe Illustrator 23.0.6, SVG Export Plug-In . SVG Version: 6.00 Build 0)  -->
<svg version="1.1" xmlns="http://www.w3.org/2000/svg" xmlns:xlink="http://www.w3.org/1999/xlink" x="0px" y="0px"
	 viewBox="0 0 512 512" style="enable-background:new 0 0 512 512;" xml:space="preserve">
<g id="Layer_1">
	<g>
		<g>
			<path d="M4.5,0H0.4C0.2,0,0,0.3,0,0.7v1.4c0,1.2,0.5,2.1,1.1,2.1h0v26c0,0.1,0,0.2,0,0.2l0.9,4.5c0.1,0.3,0.2,0.5,0.4,0.5
				c0.2,0,0.3-0.2,0.4-0.5l0.9-4.5c0-0.1,0-0.2,0-0.2v-26h0c0.6,0,1.1-0.9,1.1-2.1V0.7C4.9,0.3,4.7,0,4.5,0z"/>
		</g>
	</g>
	<path d="M3.8,2.8v0.1V2.8z"/>
</g>
<g id="Layer_2">
</g>
</svg>
